ISO-10303-21;
HEADER;
FILE_DESCRIPTION (( 'STEP AP214' ),
    '1' );
FILE_NAME ('0314030.MXP.STEP',
    '2025-01-27T08:36:40',
    ( '' ),
    ( '' ),
    'SwSTEP 2.0',
    'SolidWorks 2020',
    '' );
FILE_SCHEMA (( 'AUTOMOTIVE_DESIGN' ));
ENDSEC;

DATA;
#1 = DIRECTION ( 'NONE',  ( 0.000000000000000000, 0.000000000000000000, 1.000000000000000000 ) ) ;
#2 = EDGE_CURVE ( 'NONE', #264, #347, #221, .T. ) ;
#3 = FACE_OUTER_BOUND ( 'NONE', #123, .T. ) ;
#4 = TOROIDAL_SURFACE ( 'NONE', #186, 2.425000000000000266, 0.7500000000000000000 ) ;
#5 = AXIS2_PLACEMENT_3D ( 'NONE', #111, #113, #432 ) ;
#6 = FACE_OUTER_BOUND ( 'NONE', #364, .T. ) ;
#7 = ORIENTED_EDGE ( 'NONE', *, *, #350, .F. ) ;
#8 = EDGE_CURVE ( 'NONE', #262, #23, #72, .T. ) ;
#9 = PRODUCT_DEFINITION ( 'UNKNOWN', '', #363, #76 ) ;
#10 = DIRECTION ( 'NONE',  ( 0.000000000000000000, 0.000000000000000000, -1.000000000000000000 ) ) ;
#11 = AXIS2_PLACEMENT_3D ( 'NONE', #307, #94, #201 ) ;
#12 = CARTESIAN_POINT ( 'NONE',  ( 2.425000000000000266, 3.429011037612588783E-16, -15.87500000000000000 ) ) ;
#13 = DIRECTION ( 'NONE',  ( 1.000000000000000000, 0.000000000000000000, 0.000000000000000000 ) ) ;
#14 = EDGE_CURVE ( 'NONE', #23, #17, #37, .T. ) ;
#15 = ORIENTED_EDGE ( 'NONE', *, *, #69, .T. ) ;
#16 =( NAMED_UNIT ( * ) PLANE_ANGLE_UNIT ( ) SI_UNIT ( $, .RADIAN. ) );
#17 = VERTEX_POINT ( 'NONE', #78 ) ;
#18 = SHAPE_DEFINITION_REPRESENTATION ( #35, #133 ) ;
#19 = AXIS2_PLACEMENT_3D ( 'NONE', #34, #248, #251 ) ;
#20 = SURFACE_STYLE_USAGE ( .BOTH. , #391 ) ;
#21 = ORIENTED_EDGE ( 'NONE', *, *, #177, .F. ) ;
#22 = DIRECTION ( 'NONE',  ( 1.000000000000000000, 0.000000000000000000, 0.000000000000000000 ) ) ;
#23 = VERTEX_POINT ( 'NONE', #341 ) ;
#24 = UNCERTAINTY_MEASURE_WITH_UNIT (LENGTH_MEASURE( 1.000000000000000082E-05 ), #162, 'distance_accuracy_value', 'NONE');
#25 = DIRECTION ( 'NONE',  ( 0.000000000000000000, 0.000000000000000000, -1.000000000000000000 ) ) ;
#26 = TOROIDAL_SURFACE ( 'NONE', #86, 2.425000000000000266, 0.7500000000000000000 ) ;
#27 = CIRCLE ( 'NONE', #237, 0.7500000000000006661 ) ;
#28 = DIRECTION ( 'NONE',  ( -1.000000000000000000, 0.000000000000000000, 0.000000000000000000 ) ) ;
#29 = PLANE ( 'NONE',  #11 ) ;
#30 = CARTESIAN_POINT ( 'NONE',  ( 0.000000000000000000, 0.000000000000000000, 8.875000000000001776 ) ) ;
#31 = CARTESIAN_POINT ( 'NONE',  ( 0.000000000000000000, 0.000000000000000000, 8.875000000000001776 ) ) ;
#32 = AXIS2_PLACEMENT_3D ( 'NONE', #150, #10, #193 ) ;
#33 = EDGE_CURVE ( 'NONE', #262, #93, #130, .T. ) ;
#34 = CARTESIAN_POINT ( 'NONE',  ( 0.000000000000000000, 0.000000000000000000, -8.875000000000001776 ) ) ;
#35 = PRODUCT_DEFINITION_SHAPE ( 'NONE', 'NONE',  #9 ) ;
#36 = CARTESIAN_POINT ( 'NONE',  ( 0.000000000000000000, 0.000000000000000000, 8.875000000000001776 ) ) ;
#37 = LINE ( 'NONE', #377, #116 ) ;
#38 = ORIENTED_EDGE ( 'NONE', *, *, #294, .T. ) ;
#39 = ORIENTED_EDGE ( 'NONE', *, *, #294, .F. ) ;
#40 = AXIS2_PLACEMENT_3D ( 'NONE', #31, #106, #379 ) ;
#41 = CIRCLE ( 'NONE', #374, 2.425000000000000266 ) ;
#42 = CARTESIAN_POINT ( 'NONE',  ( 3.000000000000000444, 3.673940397442060361E-16, -8.875000000000001776 ) ) ;
#43 = MECHANICAL_DESIGN_GEOMETRIC_PRESENTATION_REPRESENTATION (  '', ( #302 ), #214 ) ;
#44 = CARTESIAN_POINT ( 'NONE',  ( 0.000000000000000000, 0.000000000000000000, -15.12500000000000000 ) ) ;
#45 = UNCERTAINTY_MEASURE_WITH_UNIT (LENGTH_MEASURE( 1.000000000000000082E-05 ), #145, 'distance_accuracy_value', 'NONE');
#46 =( LENGTH_UNIT ( ) NAMED_UNIT ( * ) SI_UNIT ( .MILLI., .METRE. ) );
#47 =( NAMED_UNIT ( * ) PLANE_ANGLE_UNIT ( ) SI_UNIT ( $, .RADIAN. ) );
#48 = SURFACE_STYLE_USAGE ( .BOTH. , #157 ) ;
#49 = CARTESIAN_POINT ( 'NONE',  ( 0.000000000000000000, 0.000000000000000000, 15.12500000000000000 ) ) ;
#50 = AXIS2_PLACEMENT_3D ( 'NONE', #356, #413, #360 ) ;
#51 =( NAMED_UNIT ( * ) SI_UNIT ( $, .STERADIAN. ) SOLID_ANGLE_UNIT ( ) );
#52 = DIRECTION ( 'NONE',  ( 0.000000000000000000, 0.000000000000000000, 1.000000000000000000 ) ) ;
#53 = EDGE_CURVE ( 'NONE', #23, #262, #330, .T. ) ;
#54 = DIRECTION ( 'NONE',  ( 1.000000000000000000, 0.000000000000000000, 0.000000000000000000 ) ) ;
#55 = ORIENTED_EDGE ( 'NONE', *, *, #324, .T. ) ;
#56 = DIRECTION ( 'NONE',  ( 1.224646799147353207E-16, 1.000000000000000000, -0.000000000000000000 ) ) ;
#57 = EDGE_LOOP ( 'NONE', ( #39, #346 ) ) ;
#58 = ADVANCED_FACE ( 'NONE', ( #216 ), #4, .T. ) ;
#59 = MECHANICAL_DESIGN_GEOMETRIC_PRESENTATION_REPRESENTATION (  '', ( #190 ), #96 ) ;
#60 = CARTESIAN_POINT ( 'NONE',  ( 0.000000000000000000, 0.000000000000000000, 15.87500000000000000 ) ) ;
#61 = CIRCLE ( 'NONE', #200, 2.425000000000000266 ) ;
#62 = ORIENTED_EDGE ( 'NONE', *, *, #67, .F. ) ;
#63 = CARTESIAN_POINT ( 'NONE',  ( 0.000000000000000000, 0.000000000000000000, -15.87500000000000000 ) ) ;
#64 = DIRECTION ( 'NONE',  ( -0.000000000000000000, -0.000000000000000000, -1.000000000000000000 ) ) ;
#65 = DIRECTION ( 'NONE',  ( 0.000000000000000000, 0.000000000000000000, 1.000000000000000000 ) ) ;
#66 = CIRCLE ( 'NONE', #19, 3.174999999999999822 ) ;
#67 = EDGE_CURVE ( 'NONE', #17, #366, #66, .T. ) ;
#68 = DIRECTION ( 'NONE',  ( -0.000000000000000000, -0.000000000000000000, -1.000000000000000000 ) ) ;
#69 = EDGE_CURVE ( 'NONE', #126, #298, #268, .T. ) ;
#70 = DIRECTION ( 'NONE',  ( 0.000000000000000000, 0.000000000000000000, 1.000000000000000000 ) ) ;
#71 = CARTESIAN_POINT ( 'NONE',  ( -2.425000000000000266, 0.000000000000000000, -15.12500000000000000 ) ) ;
#72 = CIRCLE ( 'NONE', #323, 3.174999999999999822 ) ;
#73 = ADVANCED_FACE ( 'NONE', ( #6 ), #393, .T. ) ;
#74 = APPLICATION_CONTEXT ( 'automotive_design' ) ;
#75 = CARTESIAN_POINT ( 'NONE',  ( 0.000000000000000000, 0.000000000000000000, 15.87500000000000000 ) ) ;
#76 = PRODUCT_DEFINITION_CONTEXT ( 'detailed design', #153, 'design' ) ;
#77 = DIRECTION ( 'NONE',  ( 1.000000000000000000, 0.000000000000000000, 0.000000000000000000 ) ) ;
#78 = CARTESIAN_POINT ( 'NONE',  ( 3.174999999999999822, 0.000000000000000000, -8.875000000000001776 ) ) ;
#79 = EDGE_CURVE ( 'NONE', #366, #17, #228, .T. ) ;
#80 = CIRCLE ( 'NONE', #282, 3.000000000000000444 ) ;
#81 = ORIENTED_EDGE ( 'NONE', *, *, #67, .T. ) ;
#82 = AXIS2_PLACEMENT_3D ( 'NONE', #36, #373, #309 ) ;
#83 = DIRECTION ( 'NONE',  ( -0.000000000000000000, -0.000000000000000000, 1.000000000000000000 ) ) ;
#84 = CYLINDRICAL_SURFACE ( 'NONE', #124, 3.000000000000000444 ) ;
#85 = EDGE_CURVE ( 'NONE', #262, #366, #260, .T. ) ;
#86 = AXIS2_PLACEMENT_3D ( 'NONE', #102, #128, #170 ) ;
#87 = FILL_AREA_STYLE_COLOUR ( '', #293 ) ;
#88 = PRESENTATION_LAYER_ASSIGNMENT (  '', '', ( #302 ) ) ;
#89 = FACE_OUTER_BOUND ( 'NONE', #279, .T. ) ;
#90 = ORIENTED_EDGE ( 'NONE', *, *, #8, .T. ) ;
#91 = CARTESIAN_POINT ( 'NONE',  ( -3.174999999999999822, 0.000000000000000000, 15.12500000000000000 ) ) ;
#92 = EDGE_CURVE ( 'NONE', #414, #392, #80, .T. ) ;
#93 = VERTEX_POINT ( 'NONE', #326 ) ;
#94 = DIRECTION ( 'NONE',  ( 0.000000000000000000, 0.000000000000000000, -1.000000000000000000 ) ) ;
#95 = EDGE_LOOP ( 'NONE', ( #62, #160 ) ) ;
#96 =( GEOMETRIC_REPRESENTATION_CONTEXT ( 3 ) GLOBAL_UNCERTAINTY_ASSIGNED_CONTEXT ( ( #24 ) ) GLOBAL_UNIT_ASSIGNED_CONTEXT ( ( #162, #47, #355 ) ) REPRESENTATION_CONTEXT ( 'NONE', 'WORKASPACE' ) );
#97 = CARTESIAN_POINT ( 'NONE',  ( 0.000000000000000000, 0.000000000000000000, -15.12500000000000000 ) ) ;
#98 = AXIS2_PLACEMENT_3D ( 'NONE', #209, #429, #423 ) ;
#99 = AXIS2_PLACEMENT_3D ( 'NONE', #158, #384, #329 ) ;
#100 = ORIENTED_EDGE ( 'NONE', *, *, #136, .T. ) ;
#101 = FACE_OUTER_BOUND ( 'NONE', #334, .T. ) ;
#102 = CARTESIAN_POINT ( 'NONE',  ( 0.000000000000000000, 0.000000000000000000, 15.12500000000000000 ) ) ;
#103 =( LENGTH_UNIT ( ) NAMED_UNIT ( * ) SI_UNIT ( .MILLI., .METRE. ) );
#104 = ORIENTED_EDGE ( 'NONE', *, *, #136, .F. ) ;
#105 = CARTESIAN_POINT ( 'NONE',  ( 3.000000000000000444, 3.673940397442060361E-16, 8.875000000000001776 ) ) ;
#106 = DIRECTION ( 'NONE',  ( 0.000000000000000000, 0.000000000000000000, 1.000000000000000000 ) ) ;
#107 = ORIENTED_EDGE ( 'NONE', *, *, #92, .F. ) ;
#108 = DIRECTION ( 'NONE',  ( -1.000000000000000000, 0.000000000000000000, 0.000000000000000000 ) ) ;
#109 = ORIENTED_EDGE ( 'NONE', *, *, #328, .F. ) ;
#110 = AXIS2_PLACEMENT_3D ( 'NONE', #30, #273, #108 ) ;
#111 = CARTESIAN_POINT ( 'NONE',  ( 0.000000000000000000, 0.000000000000000000, 8.875000000000001776 ) ) ;
#112 = DIRECTION ( 'NONE',  ( 0.000000000000000000, 0.000000000000000000, -1.000000000000000000 ) ) ;
#113 = DIRECTION ( 'NONE',  ( 0.000000000000000000, 0.000000000000000000, 1.000000000000000000 ) ) ;
#114 = DIRECTION ( 'NONE',  ( -1.000000000000000000, 0.000000000000000000, 0.000000000000000000 ) ) ;
#115 = DIRECTION ( 'NONE',  ( 0.000000000000000000, 0.000000000000000000, 1.000000000000000000 ) ) ;
#116 = VECTOR ( 'NONE', #403, 1000.000000000000000 ) ;
#117 = AXIS2_PLACEMENT_3D ( 'NONE', #97, #340, #28 ) ;
#118 = AXIS2_PLACEMENT_3D ( 'NONE', #161, #115, #192 ) ;
#119 = CARTESIAN_POINT ( 'NONE',  ( 3.174999999999999822, 3.888253587292846081E-16, 15.12500000000000000 ) ) ;
#120 = ADVANCED_FACE ( 'NONE', ( #225 ), #84, .T. ) ;
#121 =( NAMED_UNIT ( * ) SI_UNIT ( $, .STERADIAN. ) SOLID_ANGLE_UNIT ( ) );
#122 = DIRECTION ( 'NONE',  ( -0.000000000000000000, -0.000000000000000000, -1.000000000000000000 ) ) ;
#123 = EDGE_LOOP ( 'NONE', ( #372, #100, #426, #38 ) ) ;
#124 = AXIS2_PLACEMENT_3D ( 'NONE', #410, #188, #419 ) ;
#125 = EDGE_LOOP ( 'NONE', ( #202, #296, #235, #280 ) ) ;
#126 = VERTEX_POINT ( 'NONE', #232 ) ;
#127 = UNCERTAINTY_MEASURE_WITH_UNIT (LENGTH_MEASURE( 1.000000000000000082E-05 ), #46, 'distance_accuracy_value', 'NONE');
#128 = DIRECTION ( 'NONE',  ( 0.000000000000000000, 0.000000000000000000, 1.000000000000000000 ) ) ;
#129 = ORIENTED_EDGE ( 'NONE', *, *, #171, .T. ) ;
#130 = CIRCLE ( 'NONE', #378, 0.7500000000000006661 ) ;
#131 = CARTESIAN_POINT ( 'NONE',  ( 0.000000000000000000, 0.000000000000000000, -8.875000000000001776 ) ) ;
#132 = ADVANCED_FACE ( 'NONE', ( #286, #159 ), #322, .F. ) ;
#133 = ADVANCED_BREP_SHAPE_REPRESENTATION ( '0314030.MXP', ( #401, #118 ), #318 ) ;
#134 = DIRECTION ( 'NONE',  ( -1.000000000000000000, 0.000000000000000000, 0.000000000000000000 ) ) ;
#135 = CARTESIAN_POINT ( 'NONE',  ( 0.000000000000000000, 0.000000000000000000, -15.87500000000000000 ) ) ;
#136 = EDGE_CURVE ( 'NONE', #138, #146, #155, .T. ) ;
#137 = AXIS2_PLACEMENT_3D ( 'NONE', #75, #405, #313 ) ;
#138 = VERTEX_POINT ( 'NONE', #119 ) ;
#139 =( NAMED_UNIT ( * ) PLANE_ANGLE_UNIT ( ) SI_UNIT ( $, .RADIAN. ) );
#140 = EDGE_CURVE ( 'NONE', #23, #152, #246, .T. ) ;
#141 = DIRECTION ( 'NONE',  ( -0.000000000000000000, -0.000000000000000000, 1.000000000000000000 ) ) ;
#142 = ORIENTED_EDGE ( 'NONE', *, *, #350, .T. ) ;
#143 = CARTESIAN_POINT ( 'NONE',  ( -3.174999999999999822, 0.000000000000000000, 8.875000000000001776 ) ) ;
#144 = ORIENTED_EDGE ( 'NONE', *, *, #305, .F. ) ;
#145 =( LENGTH_UNIT ( ) NAMED_UNIT ( * ) SI_UNIT ( .MILLI., .METRE. ) );
#146 = VERTEX_POINT ( 'NONE', #91 ) ;
#147 = VECTOR ( 'NONE', #64, 1000.000000000000000 ) ;
#148 = COLOUR_RGB ( '',0.7921568627450980005, 0.8196078431372548767, 0.9333333333333333481 ) ;
#149 = PRESENTATION_STYLE_ASSIGNMENT (( #400 ) ) ;
#150 = CARTESIAN_POINT ( 'NONE',  ( 0.000000000000000000, 0.000000000000000000, -8.875000000000001776 ) ) ;
#151 = SURFACE_STYLE_FILL_AREA ( #184 ) ;
#152 = VERTEX_POINT ( 'NONE', #12 ) ;
#153 = APPLICATION_CONTEXT ( 'automotive_design' ) ;
#154 = DIRECTION ( 'NONE',  ( -1.000000000000000000, 0.000000000000000000, -0.000000000000000000 ) ) ;
#155 = CIRCLE ( 'NONE', #424, 3.174999999999999822 ) ;
#156 = PRESENTATION_LAYER_ASSIGNMENT (  '', '', ( #303 ) ) ;
#157 = SURFACE_SIDE_STYLE ('',( #354 ) ) ;
#158 = CARTESIAN_POINT ( 'NONE',  ( 0.000000000000000000, 0.000000000000000000, 15.12500000000000000 ) ) ;
#159 = FACE_OUTER_BOUND ( 'NONE', #95, .T. ) ;
#160 = ORIENTED_EDGE ( 'NONE', *, *, #79, .F. ) ;
#161 = CARTESIAN_POINT ( 'NONE',  ( 0.000000000000000000, 0.000000000000000000, 0.000000000000000000 ) ) ;
#162 =( LENGTH_UNIT ( ) NAMED_UNIT ( * ) SI_UNIT ( .MILLI., .METRE. ) );
#163 = ORIENTED_EDGE ( 'NONE', *, *, #14, .F. ) ;
#164 = STYLED_ITEM ( 'NONE', ( #320 ), #395 ) ;
#165 =( GEOMETRIC_REPRESENTATION_CONTEXT ( 3 ) GLOBAL_UNCERTAINTY_ASSIGNED_CONTEXT ( ( #321 ) ) GLOBAL_UNIT_ASSIGNED_CONTEXT ( ( #388, #226, #51 ) ) REPRESENTATION_CONTEXT ( 'NONE', 'WORKASPACE' ) );
#166 = CARTESIAN_POINT ( 'NONE',  ( -3.174999999999999822, 3.888253587292846081E-16, -15.87500000000000000 ) ) ;
#167 = EDGE_LOOP ( 'NONE', ( #336, #233, #422, #292 ) ) ;
#168 = FACE_OUTER_BOUND ( 'NONE', #327, .T. ) ;
#169 = VERTEX_POINT ( 'NONE', #254 ) ;
#170 = DIRECTION ( 'NONE',  ( 1.000000000000000000, 0.000000000000000000, 0.000000000000000000 ) ) ;
#171 = EDGE_CURVE ( 'NONE', #146, #126, #339, .T. ) ;
#172 = ORIENTED_EDGE ( 'NONE', *, *, #53, .T. ) ;
#173 = VECTOR ( 'NONE', #122, 1000.000000000000000 ) ;
#174 = DIRECTION ( 'NONE',  ( -1.000000000000000000, 0.000000000000000000, 0.000000000000000000 ) ) ;
#175 = CIRCLE ( 'NONE', #5, 3.000000000000000444 ) ;
#176 = FACE_OUTER_BOUND ( 'NONE', #278, .T. ) ;
#177 = EDGE_CURVE ( 'NONE', #146, #138, #357, .T. ) ;
#178 = LINE ( 'NONE', #266, #369 ) ;
#179 =( NAMED_UNIT ( * ) SI_UNIT ( $, .STERADIAN. ) SOLID_ANGLE_UNIT ( ) );
#180 = AXIS2_PLACEMENT_3D ( 'NONE', #194, #52, #54 ) ;
#181 = DIRECTION ( 'NONE',  ( -1.000000000000000000, 0.000000000000000000, 0.000000000000000000 ) ) ;
#182 =( NAMED_UNIT ( * ) SI_UNIT ( $, .STERADIAN. ) SOLID_ANGLE_UNIT ( ) );
#183 = CARTESIAN_POINT ( 'NONE',  ( 0.000000000000000000, 0.000000000000000000, 15.87500000000000000 ) ) ;
#184 = FILL_AREA_STYLE ('',( #217 ) ) ;
#185 = CARTESIAN_POINT ( 'NONE',  ( 0.000000000000000000, 0.000000000000000000, 8.875000000000001776 ) ) ;
#186 = AXIS2_PLACEMENT_3D ( 'NONE', #249, #112, #114 ) ;
#187 = ORIENTED_EDGE ( 'NONE', *, *, #85, .T. ) ;
#188 = DIRECTION ( 'NONE',  ( -0.000000000000000000, -0.000000000000000000, -1.000000000000000000 ) ) ;
#189 = DIRECTION ( 'NONE',  ( -0.000000000000000000, -0.000000000000000000, -1.000000000000000000 ) ) ;
#190 = STYLED_ITEM ( 'NONE', ( #227 ), #120 ) ;
#191 =( GEOMETRIC_REPRESENTATION_CONTEXT ( 3 ) GLOBAL_UNCERTAINTY_ASSIGNED_CONTEXT ( ( #45 ) ) GLOBAL_UNIT_ASSIGNED_CONTEXT ( ( #145, #139, #182 ) ) REPRESENTATION_CONTEXT ( 'NONE', 'WORKASPACE' ) );
#192 = DIRECTION ( 'NONE',  ( 1.000000000000000000, 0.000000000000000000, 0.000000000000000000 ) ) ;
#193 = DIRECTION ( 'NONE',  ( -1.000000000000000000, 0.000000000000000000, 0.000000000000000000 ) ) ;
#194 = CARTESIAN_POINT ( 'NONE',  ( 0.000000000000000000, 0.000000000000000000, 15.12500000000000000 ) ) ;
#195 = ORIENTED_EDGE ( 'NONE', *, *, #92, .T. ) ;
#196 = CARTESIAN_POINT ( 'NONE',  ( -3.000000000000000444, 0.000000000000000000, -8.875000000000001776 ) ) ;
#197 = DIRECTION ( 'NONE',  ( -1.000000000000000000, 1.224646799147353454E-16, 0.000000000000000000 ) ) ;
#198 = ORIENTED_EDGE ( 'NONE', *, *, #338, .F. ) ;
#199 = VECTOR ( 'NONE', #353, 1000.000000000000000 ) ;
#200 = AXIS2_PLACEMENT_3D ( 'NONE', #333, #70, #348 ) ;
#201 = DIRECTION ( 'NONE',  ( -1.000000000000000000, 0.000000000000000000, -0.000000000000000000 ) ) ;
#202 = ORIENTED_EDGE ( 'NONE', *, *, #53, .F. ) ;
#203 = EDGE_CURVE ( 'NONE', #138, #264, #285, .T. ) ;
#204 = DIRECTION ( 'NONE',  ( 1.000000000000000000, 0.000000000000000000, 0.000000000000000000 ) ) ;
#205 = ORIENTED_EDGE ( 'NONE', *, *, #245, .F. ) ;
#206 = CARTESIAN_POINT ( 'NONE',  ( 0.000000000000000000, 0.000000000000000000, 8.875000000000001776 ) ) ;
#207 = DIRECTION ( 'NONE',  ( 0.000000000000000000, -1.000000000000000000, 0.000000000000000000 ) ) ;
#208 = VECTOR ( 'NONE', #275, 1000.000000000000000 ) ;
#209 = CARTESIAN_POINT ( 'NONE',  ( 0.000000000000000000, 0.000000000000000000, -15.87500000000000000 ) ) ;
#210 = EDGE_LOOP ( 'NONE', ( #407, #142, #55, #109 ) ) ;
#211 = LINE ( 'NONE', #105, #208 ) ;
#212 = AXIS2_PLACEMENT_3D ( 'NONE', #131, #427, #269 ) ;
#213 = DIRECTION ( 'NONE',  ( -1.000000000000000000, 0.000000000000000000, 0.000000000000000000 ) ) ;
#214 =( GEOMETRIC_REPRESENTATION_CONTEXT ( 3 ) GLOBAL_UNCERTAINTY_ASSIGNED_CONTEXT ( ( #284 ) ) GLOBAL_UNIT_ASSIGNED_CONTEXT ( ( #103, #345, #179 ) ) REPRESENTATION_CONTEXT ( 'NONE', 'WORKASPACE' ) );
#215 = SURFACE_STYLE_FILL_AREA ( #402 ) ;
#216 = FACE_OUTER_BOUND ( 'NONE', #167, .T. ) ;
#217 = FILL_AREA_STYLE_COLOUR ( '', #148 ) ;
#218 = ADVANCED_FACE ( 'NONE', ( #89 ), #230, .T. ) ;
#219 = DIRECTION ( 'NONE',  ( -0.000000000000000000, -1.000000000000000000, -0.000000000000000000 ) ) ;
#220 = PLANE ( 'NONE',  #82 ) ;
#221 = CIRCLE ( 'NONE', #40, 3.174999999999999822 ) ;
#222 = AXIS2_PLACEMENT_3D ( 'NONE', #206, #365, #22 ) ;
#223 = ADVANCED_FACE ( 'NONE', ( #306 ), #26, .T. ) ;
#224 = FILL_AREA_STYLE ('',( #87 ) ) ;
#225 = FACE_OUTER_BOUND ( 'NONE', #210, .T. ) ;
#226 =( NAMED_UNIT ( * ) PLANE_ANGLE_UNIT ( ) SI_UNIT ( $, .RADIAN. ) );
#227 = PRESENTATION_STYLE_ASSIGNMENT (( #20 ) ) ;
#228 = CIRCLE ( 'NONE', #32, 3.174999999999999822 ) ;
#229 = AXIS2_PLACEMENT_3D ( 'NONE', #297, #68, #174 ) ;
#230 = CYLINDRICAL_SURFACE ( 'NONE', #276, 3.174999999999999822 ) ;
#231 = ORIENTED_EDGE ( 'NONE', *, *, #69, .F. ) ;
#232 = CARTESIAN_POINT ( 'NONE',  ( -2.425000000000000266, 3.429011037612588783E-16, 15.87500000000000000 ) ) ;
#233 = ORIENTED_EDGE ( 'NONE', *, *, #8, .F. ) ;
#234 = CYLINDRICAL_SURFACE ( 'NONE', #229, 3.174999999999999822 ) ;
#235 = ORIENTED_EDGE ( 'NONE', *, *, #252, .F. ) ;
#236 = AXIS2_PLACEMENT_3D ( 'NONE', #433, #141, #213 ) ;
#237 = AXIS2_PLACEMENT_3D ( 'NONE', #304, #207, #397 ) ;
#238 = DIRECTION ( 'NONE',  ( -1.000000000000000000, 0.000000000000000000, 0.000000000000000000 ) ) ;
#239 = ORIENTED_EDGE ( 'NONE', *, *, #371, .T. ) ;
#240 = PLANE ( 'NONE',  #316 ) ;
#241 = DIRECTION ( 'NONE',  ( 1.000000000000000000, 0.000000000000000000, -0.000000000000000000 ) ) ;
#242 = FILL_AREA_STYLE_COLOUR ( '', #352 ) ;
#243 = ORIENTED_EDGE ( 'NONE', *, *, #203, .T. ) ;
#244 = FACE_BOUND ( 'NONE', #381, .T. ) ;
#245 = EDGE_CURVE ( 'NONE', #146, #347, #428, .T. ) ;
#246 = CIRCLE ( 'NONE', #50, 0.7500000000000000000 ) ;
#247 = PRESENTATION_LAYER_ASSIGNMENT (  '', '', ( #164 ) ) ;
#248 = DIRECTION ( 'NONE',  ( 0.000000000000000000, 0.000000000000000000, -1.000000000000000000 ) ) ;
#249 = CARTESIAN_POINT ( 'NONE',  ( 0.000000000000000000, 0.000000000000000000, -15.12500000000000000 ) ) ;
#250 = CYLINDRICAL_SURFACE ( 'NONE', #137, 3.174999999999999822 ) ;
#251 = DIRECTION ( 'NONE',  ( -1.000000000000000000, 0.000000000000000000, 0.000000000000000000 ) ) ;
#252 = EDGE_CURVE ( 'NONE', #93, #152, #385, .T. ) ;
#253 = EDGE_LOOP ( 'NONE', ( #107, #288 ) ) ;
#254 = CARTESIAN_POINT ( 'NONE',  ( -3.000000000000000444, 0.000000000000000000, 8.875000000000001776 ) ) ;
#255 = CARTESIAN_POINT ( 'NONE',  ( 3.174999999999999822, 3.888253587292846081E-16, 15.87500000000000000 ) ) ;
#256 = ADVANCED_FACE ( 'NONE', ( #168 ), #240, .T. ) ;
#257 = DIRECTION ( 'NONE',  ( 0.000000000000000000, 0.000000000000000000, 1.000000000000000000 ) ) ;
#258 = EDGE_LOOP ( 'NONE', ( #317, #243, #259, #205 ) ) ;
#259 = ORIENTED_EDGE ( 'NONE', *, *, #2, .T. ) ;
#260 = LINE ( 'NONE', #166, #199 ) ;
#261 = ADVANCED_FACE ( 'NONE', ( #263 ), #234, .T. ) ;
#262 = VERTEX_POINT ( 'NONE', #367 ) ;
#263 = FACE_OUTER_BOUND ( 'NONE', #258, .T. ) ;
#264 = VERTEX_POINT ( 'NONE', #335 ) ;
#265 = MECHANICAL_DESIGN_GEOMETRIC_PRESENTATION_REPRESENTATION (  '', ( #164 ), #191 ) ;
#266 = CARTESIAN_POINT ( 'NONE',  ( -3.000000000000000444, 0.000000000000000000, 8.875000000000001776 ) ) ;
#267 = CYLINDRICAL_SURFACE ( 'NONE', #98, 3.174999999999999822 ) ;
#268 = CIRCLE ( 'NONE', #291, 2.425000000000000266 ) ;
#269 = DIRECTION ( 'NONE',  ( 1.000000000000000000, 0.000000000000000000, 0.000000000000000000 ) ) ;
#270 = ORIENTED_EDGE ( 'NONE', *, *, #79, .T. ) ;
#271 = SURFACE_SIDE_STYLE ('',( #215 ) ) ;
#272 = EDGE_CURVE ( 'NONE', #152, #93, #41, .T. ) ;
#273 = DIRECTION ( 'NONE',  ( -0.000000000000000000, -0.000000000000000000, -1.000000000000000000 ) ) ;
#274 = PRODUCT ( '0314030.MXP', '0314030.MXP', '', ( #289 ) ) ;
#275 = DIRECTION ( 'NONE',  ( -0.000000000000000000, -0.000000000000000000, -1.000000000000000000 ) ) ;
#276 = AXIS2_PLACEMENT_3D ( 'NONE', #63, #421, #204 ) ;
#277 = AXIS2_PLACEMENT_3D ( 'NONE', #185, #376, #77 ) ;
#278 = EDGE_LOOP ( 'NONE', ( #172, #187, #270, #163 ) ) ;
#279 = EDGE_LOOP ( 'NONE', ( #408, #90, #331, #81 ) ) ;
#280 = ORIENTED_EDGE ( 'NONE', *, *, #33, .F. ) ;
#281 = DIRECTION ( 'NONE',  ( 1.000000000000000000, 0.000000000000000000, 0.000000000000000000 ) ) ;
#282 = AXIS2_PLACEMENT_3D ( 'NONE', #411, #257, #13 ) ;
#283 = AXIS2_PLACEMENT_3D ( 'NONE', #290, #416, #154 ) ;
#284 = UNCERTAINTY_MEASURE_WITH_UNIT (LENGTH_MEASURE( 1.000000000000000082E-05 ), #103, 'distance_accuracy_value', 'NONE');
#285 = LINE ( 'NONE', #255, #173 ) ;
#286 = FACE_BOUND ( 'NONE', #253, .T. ) ;
#287 = ADVANCED_FACE ( 'NONE', ( #370 ), #386, .T. ) ;
#288 = ORIENTED_EDGE ( 'NONE', *, *, #324, .F. ) ;
#289 = PRODUCT_CONTEXT ( 'NONE', #74, 'mechanical' ) ;
#290 = CARTESIAN_POINT ( 'NONE',  ( 0.000000000000000000, 0.000000000000000000, -8.875000000000001776 ) ) ;
#291 = AXIS2_PLACEMENT_3D ( 'NONE', #183, #1, #349 ) ;
#292 = ORIENTED_EDGE ( 'NONE', *, *, #272, .F. ) ;
#293 = COLOUR_RGB ( '',0.7921568627450980005, 0.8196078431372548767, 0.9333333333333333481 ) ;
#294 = EDGE_CURVE ( 'NONE', #347, #264, #358, .T. ) ;
#295 = FILL_AREA_STYLE_COLOUR ( '', #362 ) ;
#296 = ORIENTED_EDGE ( 'NONE', *, *, #140, .T. ) ;
#297 = CARTESIAN_POINT ( 'NONE',  ( 0.000000000000000000, 0.000000000000000000, 15.87500000000000000 ) ) ;
#298 = VERTEX_POINT ( 'NONE', #299 ) ;
#299 = CARTESIAN_POINT ( 'NONE',  ( 2.425000000000000266, 0.000000000000000000, 15.87500000000000000 ) ) ;
#300 = ORIENTED_EDGE ( 'NONE', *, *, #171, .F. ) ;
#301 = AXIS2_PLACEMENT_3D ( 'NONE', #382, #56, #197 ) ;
#302 = STYLED_ITEM ( 'NONE', ( #149 ), #401 ) ;
#303 = STYLED_ITEM ( 'NONE', ( #359 ), #133 ) ;
#304 = CARTESIAN_POINT ( 'NONE',  ( 2.425000000000000266, 0.000000000000000000, 15.12500000000000000 ) ) ;
#305 = EDGE_CURVE ( 'NONE', #138, #298, #27, .T. ) ;
#306 = FACE_OUTER_BOUND ( 'NONE', #399, .T. ) ;
#307 = CARTESIAN_POINT ( 'NONE',  ( 0.000000000000000000, 0.000000000000000000, -15.87500000000000000 ) ) ;
#308 = PRESENTATION_LAYER_ASSIGNMENT (  '', '', ( #190 ) ) ;
#309 = DIRECTION ( 'NONE',  ( 1.000000000000000000, 0.000000000000000000, -0.000000000000000000 ) ) ;
#310 = MECHANICAL_DESIGN_GEOMETRIC_PRESENTATION_REPRESENTATION (  '', ( #303 ), #165 ) ;
#311 = EDGE_LOOP ( 'NONE', ( #7, #344, #418, #195 ) ) ;
#312 = FACE_OUTER_BOUND ( 'NONE', #311, .T. ) ;
#313 = DIRECTION ( 'NONE',  ( -1.000000000000000000, 0.000000000000000000, 0.000000000000000000 ) ) ;
#314 = ORIENTED_EDGE ( 'NONE', *, *, #338, .T. ) ;
#315 = SURFACE_STYLE_USAGE ( .BOTH. , #271 ) ;
#316 = AXIS2_PLACEMENT_3D ( 'NONE', #60, #65, #241 ) ;
#317 = ORIENTED_EDGE ( 'NONE', *, *, #177, .T. ) ;
#318 =( GEOMETRIC_REPRESENTATION_CONTEXT ( 3 ) GLOBAL_UNCERTAINTY_ASSIGNED_CONTEXT ( ( #127 ) ) GLOBAL_UNIT_ASSIGNED_CONTEXT ( ( #46, #16, #121 ) ) REPRESENTATION_CONTEXT ( 'NONE', 'WORKASPACE' ) );
#319 = ADVANCED_FACE ( 'NONE', ( #176 ), #267, .T. ) ;
#320 = PRESENTATION_STYLE_ASSIGNMENT (( #315 ) ) ;
#321 = UNCERTAINTY_MEASURE_WITH_UNIT (LENGTH_MEASURE( 1.000000000000000082E-05 ), #388, 'distance_accuracy_value', 'NONE');
#322 = PLANE ( 'NONE',  #283 ) ;
#323 = AXIS2_PLACEMENT_3D ( 'NONE', #44, #83, #181 ) ;
#324 = EDGE_CURVE ( 'NONE', #392, #414, #342, .T. ) ;
#325 = SURFACE_STYLE_FILL_AREA ( #383 ) ;
#326 = CARTESIAN_POINT ( 'NONE',  ( -2.425000000000000266, 0.000000000000000000, -15.87500000000000000 ) ) ;
#327 = EDGE_LOOP ( 'NONE', ( #314, #15 ) ) ;
#328 = EDGE_CURVE ( 'NONE', #169, #414, #178, .T. ) ;
#329 = DIRECTION ( 'NONE',  ( 1.000000000000000000, 0.000000000000000000, 0.000000000000000000 ) ) ;
#330 = CIRCLE ( 'NONE', #236, 3.174999999999999822 ) ;
#331 = ORIENTED_EDGE ( 'NONE', *, *, #14, .T. ) ;
#332 = ADVANCED_FACE ( 'NONE', ( #101 ), #29, .T. ) ;
#333 = CARTESIAN_POINT ( 'NONE',  ( 0.000000000000000000, 0.000000000000000000, 15.87500000000000000 ) ) ;
#334 = EDGE_LOOP ( 'NONE', ( #390, #387 ) ) ;
#335 = CARTESIAN_POINT ( 'NONE',  ( 3.174999999999999822, 3.888253587292846081E-16, 8.875000000000001776 ) ) ;
#336 = ORIENTED_EDGE ( 'NONE', *, *, #140, .F. ) ;
#337 = DIRECTION ( 'NONE',  ( 0.000000000000000000, 0.000000000000000000, -1.000000000000000000 ) ) ;
#338 = EDGE_CURVE ( 'NONE', #298, #126, #61, .T. ) ;
#339 = CIRCLE ( 'NONE', #301, 0.7499999999999997780 ) ;
#340 = DIRECTION ( 'NONE',  ( 0.000000000000000000, 0.000000000000000000, -1.000000000000000000 ) ) ;
#341 = CARTESIAN_POINT ( 'NONE',  ( 3.174999999999999822, 0.000000000000000000, -15.12500000000000000 ) ) ;
#342 = CIRCLE ( 'NONE', #212, 3.000000000000000444 ) ;
#343 = FACE_OUTER_BOUND ( 'NONE', #57, .T. ) ;
#344 = ORIENTED_EDGE ( 'NONE', *, *, #380, .F. ) ;
#345 =( NAMED_UNIT ( * ) PLANE_ANGLE_UNIT ( ) SI_UNIT ( $, .RADIAN. ) );
#346 = ORIENTED_EDGE ( 'NONE', *, *, #2, .F. ) ;
#347 = VERTEX_POINT ( 'NONE', #143 ) ;
#348 = DIRECTION ( 'NONE',  ( 1.000000000000000000, 0.000000000000000000, 0.000000000000000000 ) ) ;
#349 = DIRECTION ( 'NONE',  ( 1.000000000000000000, 0.000000000000000000, 0.000000000000000000 ) ) ;
#350 = EDGE_CURVE ( 'NONE', #404, #392, #211, .T. ) ;
#351 = CARTESIAN_POINT ( 'NONE',  ( -3.174999999999999822, 3.888253587292846081E-16, -8.875000000000001776 ) ) ;
#352 = COLOUR_RGB ( '',1.000000000000000000, 1.000000000000000000, 1.000000000000000000 ) ;
#353 = DIRECTION ( 'NONE',  ( -0.000000000000000000, -0.000000000000000000, 1.000000000000000000 ) ) ;
#354 = SURFACE_STYLE_FILL_AREA ( #224 ) ;
#355 =( NAMED_UNIT ( * ) SI_UNIT ( $, .STERADIAN. ) SOLID_ANGLE_UNIT ( ) );
#356 = CARTESIAN_POINT ( 'NONE',  ( 2.425000000000000266, 2.969768487932331484E-16, -15.12500000000000000 ) ) ;
#357 = CIRCLE ( 'NONE', #99, 3.174999999999999822 ) ;
#358 = CIRCLE ( 'NONE', #222, 3.174999999999999822 ) ;
#359 = PRESENTATION_STYLE_ASSIGNMENT (( #48 ) ) ;
#360 = DIRECTION ( 'NONE',  ( -1.000000000000000000, -1.224646799147353207E-16, 0.000000000000000000 ) ) ;
#361 = CARTESIAN_POINT ( 'NONE',  ( 0.000000000000000000, 0.000000000000000000, -15.87500000000000000 ) ) ;
#362 = COLOUR_RGB ( '',1.000000000000000000, 1.000000000000000000, 1.000000000000000000 ) ;
#363 = PRODUCT_DEFINITION_FORMATION_WITH_SPECIFIED_SOURCE ( 'ANY', '', #274, .NOT_KNOWN. ) ;
#364 = EDGE_LOOP ( 'NONE', ( #300, #104, #394, #231 ) ) ;
#365 = DIRECTION ( 'NONE',  ( 0.000000000000000000, 0.000000000000000000, 1.000000000000000000 ) ) ;
#366 = VERTEX_POINT ( 'NONE', #351 ) ;
#367 = CARTESIAN_POINT ( 'NONE',  ( -3.174999999999999822, 3.888253587292846081E-16, -15.12500000000000000 ) ) ;
#368 = CARTESIAN_POINT ( 'NONE',  ( -3.174999999999999822, 0.000000000000000000, 15.87500000000000000 ) ) ;
#369 = VECTOR ( 'NONE', #396, 1000.000000000000000 ) ;
#370 = FACE_OUTER_BOUND ( 'NONE', #125, .T. ) ;
#371 = EDGE_CURVE ( 'NONE', #404, #169, #175, .T. ) ;
#372 = ORIENTED_EDGE ( 'NONE', *, *, #203, .F. ) ;
#373 = DIRECTION ( 'NONE',  ( 0.000000000000000000, 0.000000000000000000, 1.000000000000000000 ) ) ;
#374 = AXIS2_PLACEMENT_3D ( 'NONE', #361, #25, #134 ) ;
#375 = ADVANCED_FACE ( 'NONE', ( #3 ), #250, .T. ) ;
#376 = DIRECTION ( 'NONE',  ( 0.000000000000000000, 0.000000000000000000, 1.000000000000000000 ) ) ;
#377 = CARTESIAN_POINT ( 'NONE',  ( 3.174999999999999822, 0.000000000000000000, -15.87500000000000000 ) ) ;
#378 = AXIS2_PLACEMENT_3D ( 'NONE', #71, #219, #406 ) ;
#379 = DIRECTION ( 'NONE',  ( 1.000000000000000000, 0.000000000000000000, 0.000000000000000000 ) ) ;
#380 = EDGE_CURVE ( 'NONE', #169, #404, #417, .T. ) ;
#381 = EDGE_LOOP ( 'NONE', ( #420, #239 ) ) ;
#382 = CARTESIAN_POINT ( 'NONE',  ( -2.425000000000000266, 2.969768487932331484E-16, 15.12500000000000000 ) ) ;
#383 = FILL_AREA_STYLE ('',( #295 ) ) ;
#384 = DIRECTION ( 'NONE',  ( -0.000000000000000000, -0.000000000000000000, -1.000000000000000000 ) ) ;
#385 = CIRCLE ( 'NONE', #431, 2.425000000000000266 ) ;
#386 = TOROIDAL_SURFACE ( 'NONE', #117, 2.425000000000000266, 0.7500000000000000000 ) ;
#387 = ORIENTED_EDGE ( 'NONE', *, *, #272, .T. ) ;
#388 =( LENGTH_UNIT ( ) NAMED_UNIT ( * ) SI_UNIT ( .MILLI., .METRE. ) );
#389 = ADVANCED_FACE ( 'NONE', ( #244, #343 ), #220, .F. ) ;
#390 = ORIENTED_EDGE ( 'NONE', *, *, #252, .T. ) ;
#391 = SURFACE_SIDE_STYLE ('',( #325 ) ) ;
#392 = VERTEX_POINT ( 'NONE', #42 ) ;
#393 = TOROIDAL_SURFACE ( 'NONE', #180, 2.425000000000000266, 0.7500000000000000000 ) ;
#394 = ORIENTED_EDGE ( 'NONE', *, *, #305, .T. ) ;
#395 = ADVANCED_FACE ( 'NONE', ( #312 ), #434, .T. ) ;
#396 = DIRECTION ( 'NONE',  ( -0.000000000000000000, -0.000000000000000000, -1.000000000000000000 ) ) ;
#397 = DIRECTION ( 'NONE',  ( 0.000000000000000000, 0.000000000000000000, -1.000000000000000000 ) ) ;
#398 = SURFACE_SIDE_STYLE ('',( #151 ) ) ;
#399 = EDGE_LOOP ( 'NONE', ( #21, #129, #198, #144 ) ) ;
#400 = SURFACE_STYLE_USAGE ( .BOTH. , #398 ) ;
#401 = MANIFOLD_SOLID_BREP ( 'Fillet2', #430 ) ;
#402 = FILL_AREA_STYLE ('',( #242 ) ) ;
#403 = DIRECTION ( 'NONE',  ( -0.000000000000000000, -0.000000000000000000, 1.000000000000000000 ) ) ;
#404 = VERTEX_POINT ( 'NONE', #409 ) ;
#405 = DIRECTION ( 'NONE',  ( -0.000000000000000000, -0.000000000000000000, -1.000000000000000000 ) ) ;
#406 = DIRECTION ( 'NONE',  ( 0.000000000000000000, 0.000000000000000000, -1.000000000000000000 ) ) ;
#407 = ORIENTED_EDGE ( 'NONE', *, *, #371, .F. ) ;
#408 = ORIENTED_EDGE ( 'NONE', *, *, #85, .F. ) ;
#409 = CARTESIAN_POINT ( 'NONE',  ( 3.000000000000000444, 3.673940397442060361E-16, 8.875000000000001776 ) ) ;
#410 = CARTESIAN_POINT ( 'NONE',  ( 0.000000000000000000, 0.000000000000000000, 8.875000000000001776 ) ) ;
#411 = CARTESIAN_POINT ( 'NONE',  ( 0.000000000000000000, 0.000000000000000000, -8.875000000000001776 ) ) ;
#412 = APPLICATION_PROTOCOL_DEFINITION ( 'draft international standard', 'automotive_design', 1998, #74 ) ;
#413 = DIRECTION ( 'NONE',  ( -1.224646799147353207E-16, 1.000000000000000000, 0.000000000000000000 ) ) ;
#414 = VERTEX_POINT ( 'NONE', #196 ) ;
#415 = APPLICATION_PROTOCOL_DEFINITION ( 'draft international standard', 'automotive_design', 1998, #153 ) ;
#416 = DIRECTION ( 'NONE',  ( 0.000000000000000000, 0.000000000000000000, -1.000000000000000000 ) ) ;
#417 = CIRCLE ( 'NONE', #277, 3.000000000000000444 ) ;
#418 = ORIENTED_EDGE ( 'NONE', *, *, #328, .T. ) ;
#419 = DIRECTION ( 'NONE',  ( -1.000000000000000000, 0.000000000000000000, 0.000000000000000000 ) ) ;
#420 = ORIENTED_EDGE ( 'NONE', *, *, #380, .T. ) ;
#421 = DIRECTION ( 'NONE',  ( -0.000000000000000000, -0.000000000000000000, 1.000000000000000000 ) ) ;
#422 = ORIENTED_EDGE ( 'NONE', *, *, #33, .T. ) ;
#423 = DIRECTION ( 'NONE',  ( 1.000000000000000000, 0.000000000000000000, 0.000000000000000000 ) ) ;
#424 = AXIS2_PLACEMENT_3D ( 'NONE', #49, #189, #281 ) ;
#425 = PRODUCT_RELATED_PRODUCT_CATEGORY ( 'part', '', ( #274 ) ) ;
#426 = ORIENTED_EDGE ( 'NONE', *, *, #245, .T. ) ;
#427 = DIRECTION ( 'NONE',  ( 0.000000000000000000, 0.000000000000000000, 1.000000000000000000 ) ) ;
#428 = LINE ( 'NONE', #368, #147 ) ;
#429 = DIRECTION ( 'NONE',  ( -0.000000000000000000, -0.000000000000000000, 1.000000000000000000 ) ) ;
#430 = CLOSED_SHELL ( 'NONE', ( #223, #287, #319, #261, #120, #395, #375, #256, #389, #218, #332, #132, #58, #73 ) ) ;
#431 = AXIS2_PLACEMENT_3D ( 'NONE', #135, #337, #238 ) ;
#432 = DIRECTION ( 'NONE',  ( 1.000000000000000000, 0.000000000000000000, 0.000000000000000000 ) ) ;
#433 = CARTESIAN_POINT ( 'NONE',  ( 0.000000000000000000, 0.000000000000000000, -15.12500000000000000 ) ) ;
#434 = CYLINDRICAL_SURFACE ( 'NONE', #110, 3.000000000000000444 ) ;
ENDSEC;
END-ISO-10303-21;
