ISO-10303-21;
HEADER;
FILE_DESCRIPTION (( 'STEP AP214' ),
    '1' );
FILE_NAME ('1570.STEP',
    '2016-02-19T17:37:36',
    ( '' ),
    ( '' ),
    'SwSTEP 2.0',
    'SolidWorks 2013',
    '' );
FILE_SCHEMA (( 'AUTOMOTIVE_DESIGN' ));
ENDSEC;

DATA;
#1 = DIRECTION ( 'NONE',  ( 1.000000000000000000, 0.0000000000000000000, 0.0000000000000000000 ) ) ;
#2 = DIRECTION ( 'NONE',  ( 2.753879025871237300E-016, 1.376939512935618600E-016, -1.000000000000000000 ) ) ;
#3 = VERTEX_POINT ( 'NONE', #464 ) ;
#4 = VECTOR ( 'NONE', #39, 39.37007874015748100 ) ;
#5 = VERTEX_POINT ( 'NONE', #298 ) ;
#6 = CARTESIAN_POINT ( 'NONE',  ( 0.07799999999999997200, -4.268512490100411300E-017, 0.3279999999999999000 ) ) ;
#7 = LINE ( 'NONE', #540, #302 ) ;
#8 = DIRECTION ( 'NONE',  ( -0.0000000000000000000, 1.000000000000000000, 1.224646799147353700E-016 ) ) ;
#9 = CARTESIAN_POINT ( 'NONE',  ( -0.1875000000000000300, 0.06199999999999999300, 0.07999999999999998800 ) ) ;
#10 = LENGTH_MEASURE_WITH_UNIT ( LENGTH_MEASURE( 0.02539999999999999900 ), #637 );
#11 = VERTEX_POINT ( 'NONE', #236 ) ;
#12 = ORIENTED_EDGE ( 'NONE', *, *, #167, .F. ) ;
#13 = DIRECTION ( 'NONE',  ( -0.0000000000000000000, 0.0000000000000000000, -1.000000000000000000 ) ) ;
#14 = CARTESIAN_POINT ( 'NONE',  ( -0.1875000000000000300, 0.06199999999999999300, 0.07999999999999998800 ) ) ;
#15 = SURFACE_SIDE_STYLE ('',( #204 ) ) ;
#16 = VERTEX_POINT ( 'NONE', #124 ) ;
#17 = EDGE_CURVE ( 'NONE', #434, #579, #496, .T. ) ;
#18 = SURFACE_STYLE_USAGE ( .BOTH. , #15 ) ;
#19 = AXIS2_PLACEMENT_3D ( 'NONE', #645, #8, #483 ) ;
#20 =( NAMED_UNIT ( * ) SI_UNIT ( $, .STERADIAN. ) SOLID_ANGLE_UNIT ( ) );
#21 = DIRECTION ( 'NONE',  ( 0.0000000000000000000, -1.119677073506150800E-016, 1.000000000000000000 ) ) ;
#22 = CARTESIAN_POINT ( 'NONE',  ( 0.07800000000000000000, -3.414809992080329000E-017, 0.2659999999999999600 ) ) ;
#23 = FACE_OUTER_BOUND ( 'NONE', #269, .T. ) ;
#24 = PLANE ( 'NONE',  #37 ) ;
#25 = ORIENTED_EDGE ( 'NONE', *, *, #536, .T. ) ;
#26 = SURFACE_SIDE_STYLE ('',( #479 ) ) ;
#27 = FACE_OUTER_BOUND ( 'NONE', #276, .T. ) ;
#28 = AXIS2_PLACEMENT_3D ( 'NONE', #595, #587, #94 ) ;
#29 = CARTESIAN_POINT ( 'NONE',  ( -0.1875000000000000300, -5.143516556418884400E-017, 0.5000000000000000000 ) ) ;
#30 = DIRECTION ( 'NONE',  ( 0.0000000000000000000, 0.0000000000000000000, 1.000000000000000000 ) ) ;
#31 = CYLINDRICAL_SURFACE ( 'NONE', #615, 0.07800000000000000000 ) ;
#32 = DIRECTION ( 'NONE',  ( -1.000000000000000000, 3.372529134272240500E-032, -2.753879025871235300E-016 ) ) ;
#33 = DIRECTION ( 'NONE',  ( -1.000000000000000000, -0.0000000000000000000, -0.0000000000000000000 ) ) ;
#34 = ORIENTED_EDGE ( 'NONE', *, *, #135, .F. ) ;
#35 = CARTESIAN_POINT ( 'NONE',  ( -0.07799999999999988900, 0.2809999999999999700, 0.06200000000000000000 ) ) ;
#36 = DIRECTION ( 'NONE',  ( -2.753879025871235300E-016, -1.376939512935617700E-016, 1.000000000000000000 ) ) ;
#37 = AXIS2_PLACEMENT_3D ( 'NONE', #130, #655, #548 ) ;
#38 = DIRECTION ( 'NONE',  ( 0.0000000000000000000, 0.0000000000000000000, 1.000000000000000000 ) ) ;
#39 = DIRECTION ( 'NONE',  ( 0.0000000000000000000, -1.119677073506150800E-016, 1.000000000000000000 ) ) ;
#40 = LINE ( 'NONE', #211, #95 ) ;
#41 = VERTEX_POINT ( 'NONE', #6 ) ;
#42 = ORIENTED_EDGE ( 'NONE', *, *, #251, .T. ) ;
#43 = ADVANCED_FACE ( 'NONE', ( #27 ), #31, .F. ) ;
#44 = ADVANCED_FACE ( 'NONE', ( #292 ), #403, .T. ) ;
#45 = VECTOR ( 'NONE', #77, 39.37007874015748100 ) ;
#46 = LINE ( 'NONE', #537, #228 ) ;
#47 = EDGE_CURVE ( 'NONE', #121, #659, #708, .T. ) ;
#48 = ORIENTED_EDGE ( 'NONE', *, *, #252, .F. ) ;
#49 = EDGE_CURVE ( 'NONE', #41, #704, #359, .T. ) ;
#50 = COLOUR_RGB ( '',0.7960784313725489700, 0.8235294117647058400, 0.9372549019607843100 ) ;
#51 = CARTESIAN_POINT ( 'NONE',  ( 0.1875000000000000300, 0.08000000000000000200, 0.08000000000000000200 ) ) ;
#52 = ORIENTED_EDGE ( 'NONE', *, *, #65, .F. ) ;
#53 = LINE ( 'NONE', #568, #295 ) ;
#54 = ADVANCED_FACE ( 'NONE', ( #613 ), #24, .T. ) ;
#55 = ORIENTED_EDGE ( 'NONE', *, *, #305, .T. ) ;
#56 = LINE ( 'NONE', #371, #412 ) ;
#57 = VECTOR ( 'NONE', #266, 39.37007874015748100 ) ;
#58 = ADVANCED_FACE ( 'NONE', ( #69 ), #364, .T. ) ;
#59 = ADVANCED_FACE ( 'NONE', ( #667 ), #652, .T. ) ;
#60 = FACE_OUTER_BOUND ( 'NONE', #564, .T. ) ;
#61 = ORIENTED_EDGE ( 'NONE', *, *, #507, .T. ) ;
#62 = VERTEX_POINT ( 'NONE', #489 ) ;
#63 = AXIS2_PLACEMENT_3D ( 'NONE', #694, #82, #700 ) ;
#64 = DIRECTION ( 'NONE',  ( -0.0000000000000000000, -1.000000000000000000, -0.0000000000000000000 ) ) ;
#65 = EDGE_CURVE ( 'NONE', #511, #5, #560, .T. ) ;
#66 = CYLINDRICAL_SURFACE ( 'NONE', #242, 0.07800000000000002800 ) ;
#67 = AXIS2_PLACEMENT_3D ( 'NONE', #185, #308, #304 ) ;
#68 = ADVANCED_FACE ( 'NONE', ( #230 ), #432, .T. ) ;
#69 = FACE_OUTER_BOUND ( 'NONE', #127, .T. ) ;
#70 = AXIS2_PLACEMENT_3D ( 'NONE', #614, #227, #606 ) ;
#71 = CARTESIAN_POINT ( 'NONE',  ( -0.1875000000000000300, 0.08000000000000000200, 0.08000000000000000200 ) ) ;
#72 = ORIENTED_EDGE ( 'NONE', *, *, #337, .T. ) ;
#73 = CARTESIAN_POINT ( 'NONE',  ( 1.910449006669873200E-017, 1.030999999999999900, 0.0000000000000000000 ) ) ;
#74 = CIRCLE ( 'NONE', #63, 0.08000000000000000200 ) ;
#75 = EDGE_LOOP ( 'NONE', ( #561, #602, #609, #717 ) ) ;
#76 = ORIENTED_EDGE ( 'NONE', *, *, #347, .T. ) ;
#77 = DIRECTION ( 'NONE',  ( 0.0000000000000000000, 1.000000000000000000, 0.0000000000000000000 ) ) ;
#78 = CARTESIAN_POINT ( 'NONE',  ( 0.1875000000000000300, 0.0000000000000000000, 0.07999999999999998800 ) ) ;
#79 = ORIENTED_EDGE ( 'NONE', *, *, #398, .F. ) ;
#80 = UNCERTAINTY_MEASURE_WITH_UNIT (LENGTH_MEASURE( 1.000000000000000100E-005 ), #420, 'distance_accuracy_value', 'NONE');
#81 = EDGE_CURVE ( 'NONE', #579, #62, #46, .T. ) ;
#82 = DIRECTION ( 'NONE',  ( -1.000000000000000000, 0.0000000000000000000, 0.0000000000000000000 ) ) ;
#83 = VERTEX_POINT ( 'NONE', #605 ) ;
#84 = LINE ( 'NONE', #147, #481 ) ;
#85 = ADVANCED_FACE ( 'NONE', ( #679 ), #429, .T. ) ;
#86 = EDGE_CURVE ( 'NONE', #511, #150, #391, .T. ) ;
#87 = FILL_AREA_STYLE_COLOUR ( '', #50 ) ;
#88 = FACE_OUTER_BOUND ( 'NONE', #666, .T. ) ;
#89 = PRODUCT_DEFINITION_SHAPE ( 'NONE', 'NONE',  #550 ) ;
#90 = CARTESIAN_POINT ( 'NONE',  ( 0.0000000000000000000, -4.268512490100411300E-017, 0.3279999999999999600 ) ) ;
#91 = DIRECTION ( 'NONE',  ( 1.000000000000000000, 0.0000000000000000000, 0.0000000000000000000 ) ) ;
#92 = CARTESIAN_POINT ( 'NONE',  ( 0.07800000000000000000, -3.414809992080329000E-017, 0.2659999999999999600 ) ) ;
#93 = ORIENTED_EDGE ( 'NONE', *, *, #720, .T. ) ;
#94 = DIRECTION ( 'NONE',  ( 1.000000000000000000, 0.0000000000000000000, 0.0000000000000000000 ) ) ;
#95 = VECTOR ( 'NONE', #64, 39.37007874015748100 ) ;
#96 = DIRECTION ( 'NONE',  ( 0.0000000000000000000, -0.0000000000000000000, 1.000000000000000000 ) ) ;
#97 = ORIENTED_EDGE ( 'NONE', *, *, #335, .F. ) ;
#98 = CARTESIAN_POINT ( 'NONE',  ( 0.1875000000000000300, 0.06199999999999999300, 0.07999999999999998800 ) ) ;
#99 = CARTESIAN_POINT ( 'NONE',  ( -0.1875000000000000300, 1.187000000000000100, 0.06200000000000000000 ) ) ;
#100 = VECTOR ( 'NONE', #710, 39.37007874015748100 ) ;
#101 = AXIS2_PLACEMENT_3D ( 'NONE', #680, #174, #571 ) ;
#102 = ORIENTED_EDGE ( 'NONE', *, *, #86, .F. ) ;
#103 = DIRECTION ( 'NONE',  ( 0.0000000000000000000, -1.000000000000000000, -1.119677073506151000E-016 ) ) ;
#104 = EDGE_CURVE ( 'NONE', #11, #434, #331, .T. ) ;
#105 = FACE_OUTER_BOUND ( 'NONE', #137, .T. ) ;
#106 = AXIS2_PLACEMENT_3D ( 'NONE', #649, #13, #697 ) ;
#107 = DIRECTION ( 'NONE',  ( -1.000000000000000000, 0.0000000000000000000, 0.0000000000000000000 ) ) ;
#108 = ORIENTED_EDGE ( 'NONE', *, *, #720, .F. ) ;
#109 = DIRECTION ( 'NONE',  ( 0.0000000000000000000, 0.0000000000000000000, 1.000000000000000000 ) ) ;
#110 = ORIENTED_EDGE ( 'NONE', *, *, #252, .T. ) ;
#111 = AXIS2_PLACEMENT_3D ( 'NONE', #696, #293, #531 ) ;
#112 = VERTEX_POINT ( 'NONE', #265 ) ;
#113 = ORIENTED_EDGE ( 'NONE', *, *, #135, .T. ) ;
#114 = EDGE_CURVE ( 'NONE', #603, #659, #518, .T. ) ;
#115 = LINE ( 'NONE', #535, #197 ) ;
#116 = FACE_OUTER_BOUND ( 'NONE', #352, .T. ) ;
#117 = EDGE_CURVE ( 'NONE', #343, #16, #248, .T. ) ;
#118 = ORIENTED_EDGE ( 'NONE', *, *, #554, .T. ) ;
#119 = LINE ( 'NONE', #376, #354 ) ;
#120 = DIRECTION ( 'NONE',  ( -1.000000000000000000, -0.0000000000000000000, -0.0000000000000000000 ) ) ;
#121 = VERTEX_POINT ( 'NONE', #706 ) ;
#122 = CARTESIAN_POINT ( 'NONE',  ( 0.1875000000000000300, 1.187000000000000100, 0.0000000000000000000 ) ) ;
#123 = ORIENTED_EDGE ( 'NONE', *, *, #214, .T. ) ;
#124 = CARTESIAN_POINT ( 'NONE',  ( 0.07800000000000009700, 0.2809999999999999700, 0.0000000000000000000 ) ) ;
#125 = DIRECTION ( 'NONE',  ( 0.0000000000000000000, -1.224646799147353200E-016, 1.000000000000000000 ) ) ;
#126 = LINE ( 'NONE', #220, #723 ) ;
#127 = EDGE_LOOP ( 'NONE', ( #296, #194, #375, #280 ) ) ;
#128 = ORIENTED_EDGE ( 'NONE', *, *, #47, .T. ) ;
#129 = AXIS2_PLACEMENT_3D ( 'NONE', #257, #419, #585 ) ;
#130 = CARTESIAN_POINT ( 'NONE',  ( 0.1875000000000000300, 0.0000000000000000000, 0.07999999999999998800 ) ) ;
#131 = DIRECTION ( 'NONE',  ( -0.0000000000000000000, -0.0000000000000000000, 1.000000000000000000 ) ) ;
#132 = LINE ( 'NONE', #378, #239 ) ;
#133 =( NAMED_UNIT ( * ) SI_UNIT ( $, .STERADIAN. ) SOLID_ANGLE_UNIT ( ) );
#134 = DIRECTION ( 'NONE',  ( 1.000000000000000000, 0.0000000000000000000, 0.0000000000000000000 ) ) ;
#135 = EDGE_CURVE ( 'NONE', #338, #434, #198, .T. ) ;
#136 = AXIS2_PLACEMENT_3D ( 'NONE', #539, #546, #422 ) ;
#137 = EDGE_LOOP ( 'NONE', ( #118, #589, #148, #235 ) ) ;
#138 = CARTESIAN_POINT ( 'NONE',  ( 0.1875000000000000300, -4.408728476930501100E-018, 0.07999999999999998800 ) ) ;
#139 = CARTESIAN_POINT ( 'NONE',  ( 0.0000000000000000000, -4.268512490100411300E-017, 0.3279999999999999600 ) ) ;
#140 = VECTOR ( 'NONE', #2, 39.37007874015748100 ) ;
#141 = PRODUCT_CONTEXT ( 'NONE', #490, 'mechanical' ) ;
#142 = VERTEX_POINT ( 'NONE', #594 ) ;
#143 = DIRECTION ( 'NONE',  ( -1.000000000000000000, -0.0000000000000000000, -0.0000000000000000000 ) ) ;
#144 = SHAPE_REPRESENTATION ( '1570', ( #358 ), #326 ) ;
#145 = LINE ( 'NONE', #315, #524 ) ;
#146 = DIRECTION ( 'NONE',  ( 0.0000000000000000000, 1.000000000000000000, 1.224646799147353500E-016 ) ) ;
#147 = CARTESIAN_POINT ( 'NONE',  ( -0.07800000000000001400, 1.030999999999999900, 0.0000000000000000000 ) ) ;
#148 = ORIENTED_EDGE ( 'NONE', *, *, #215, .F. ) ;
#149 = DIRECTION ( 'NONE',  ( 0.0000000000000000000, 0.0000000000000000000, -1.000000000000000000 ) ) ;
#150 = VERTEX_POINT ( 'NONE', #661 ) ;
#151 = DIRECTION ( 'NONE',  ( -1.000000000000000000, -0.0000000000000000000, -0.0000000000000000000 ) ) ;
#152 = VECTOR ( 'NONE', #641, 39.37007874015748100 ) ;
#153 = ORIENTED_EDGE ( 'NONE', *, *, #692, .F. ) ;
#154 = VERTEX_POINT ( 'NONE', #99 ) ;
#155 = EDGE_CURVE ( 'NONE', #526, #121, #629, .T. ) ;
#156 = EDGE_CURVE ( 'NONE', #232, #112, #7, .T. ) ;
#157 = ORIENTED_EDGE ( 'NONE', *, *, #465, .T. ) ;
#158 = LINE ( 'NONE', #492, #336 ) ;
#159 = VERTEX_POINT ( 'NONE', #92 ) ;
#160 = VECTOR ( 'NONE', #143, 39.37007874015748100 ) ;
#161 = FACE_OUTER_BOUND ( 'NONE', #224, .T. ) ;
#162 = ORIENTED_EDGE ( 'NONE', *, *, #732, .T. ) ;
#163 = ORIENTED_EDGE ( 'NONE', *, *, #156, .F. ) ;
#164 = ORIENTED_EDGE ( 'NONE', *, *, #384, .T. ) ;
#165 = STYLED_ITEM ( 'NONE', ( #494 ), #729 ) ;
#166 = LINE ( 'NONE', #14, #673 ) ;
#167 = EDGE_CURVE ( 'NONE', #654, #232, #209, .T. ) ;
#168 = AXIS2_PLACEMENT_3D ( 'NONE', #598, #146, #493 ) ;
#169 = CIRCLE ( 'NONE', #283, 0.07800000000000000000 ) ;
#170 = CARTESIAN_POINT ( 'NONE',  ( -0.07800000000000000000, -3.414809992080329000E-017, 0.2659999999999999600 ) ) ;
#171 = ORIENTED_EDGE ( 'NONE', *, *, #465, .F. ) ;
#172 = VECTOR ( 'NONE', #151, 39.37007874015748100 ) ;
#173 = CIRCLE ( 'NONE', #168, 0.07800000000000002800 ) ;
#174 = DIRECTION ( 'NONE',  ( -1.000000000000000000, 0.0000000000000000000, 0.0000000000000000000 ) ) ;
#175 = AXIS2_PLACEMENT_3D ( 'NONE', #188, #698, #321 ) ;
#176 = ORIENTED_EDGE ( 'NONE', *, *, #274, .T. ) ;
#177 = ORIENTED_EDGE ( 'NONE', *, *, #692, .T. ) ;
#178 = CARTESIAN_POINT ( 'NONE',  ( 0.07800000000000004200, 1.030999999999999900, 0.0000000000000000000 ) ) ;
#179 = AXIS2_PLACEMENT_3D ( 'NONE', #71, #574, #522 ) ;
#180 = FACE_OUTER_BOUND ( 'NONE', #240, .T. ) ;
#181 = ORIENTED_EDGE ( 'NONE', *, *, #286, .T. ) ;
#182 = VERTEX_POINT ( 'NONE', #380 ) ;
#183 = DIRECTION ( 'NONE',  ( 0.0000000000000000000, 1.000000000000000000, 1.224646799147353500E-016 ) ) ;
#184 = UNCERTAINTY_MEASURE_WITH_UNIT (LENGTH_MEASURE( 1.000000000000000100E-005 ), #529, 'distance_accuracy_value', 'NONE');
#185 = CARTESIAN_POINT ( 'NONE',  ( 0.1875000000000000300, 0.08000000000000000200, 0.08000000000000000200 ) ) ;
#186 = ORIENTED_EDGE ( 'NONE', *, *, #156, .T. ) ;
#187 = EDGE_CURVE ( 'NONE', #434, #182, #166, .T. ) ;
#188 = CARTESIAN_POINT ( 'NONE',  ( 0.07800000000000000000, -3.414809992080329000E-017, 0.2659999999999999600 ) ) ;
#189 = CARTESIAN_POINT ( 'NONE',  ( 1.910449006669873200E-017, 1.030999999999999900, 0.0000000000000000000 ) ) ;
#190 = EDGE_CURVE ( 'NONE', #343, #476, #56, .T. ) ;
#191 = EDGE_LOOP ( 'NONE', ( #407, #108 ) ) ;
#192 = DIRECTION ( 'NONE',  ( -0.0000000000000000000, 1.000000000000000000, 1.224646799147353700E-016 ) ) ;
#193 = COLOUR_RGB ( '',0.7960784313725489700, 0.8235294117647058400, 0.9372549019607843100 ) ;
#194 = ORIENTED_EDGE ( 'NONE', *, *, #677, .T. ) ;
#195 =( NAMED_UNIT ( * ) PLANE_ANGLE_UNIT ( ) SI_UNIT ( $, .RADIAN. ) );
#196 = CARTESIAN_POINT ( 'NONE',  ( -0.1875000000000000300, 0.08000000000000000200, 0.0000000000000000000 ) ) ;
#197 = VECTOR ( 'NONE', #690, 39.37007874015748100 ) ;
#198 = LINE ( 'NONE', #328, #57 ) ;
#199 = ADVANCED_FACE ( 'NONE', ( #116 ), #500, .F. ) ;
#200 = CARTESIAN_POINT ( 'NONE',  ( 0.1875000000000000300, -5.143516556418884400E-017, 0.5000000000000000000 ) ) ;
#201 = DIRECTION ( 'NONE',  ( 0.0000000000000000000, 1.000000000000000000, 0.0000000000000000000 ) ) ;
#202 = DIRECTION ( 'NONE',  ( 0.0000000000000000000, 1.000000000000000000, 1.224646799147353500E-016 ) ) ;
#203 = CARTESIAN_POINT ( 'NONE',  ( -0.1875000000000000300, 1.187000000000000100, 0.06200000000000000000 ) ) ;
#204 = SURFACE_STYLE_FILL_AREA ( #635 ) ;
#205 = ORIENTED_EDGE ( 'NONE', *, *, #512, .T. ) ;
#206 = ORIENTED_EDGE ( 'NONE', *, *, #81, .F. ) ;
#207 = DIRECTION ( 'NONE',  ( 1.000000000000000000, 0.0000000000000000000, 0.0000000000000000000 ) ) ;
#208 = PLANE ( 'NONE',  #674 ) ;
#209 = LINE ( 'NONE', #299, #581 ) ;
#210 = AXIS2_PLACEMENT_3D ( 'NONE', #317, #651, #247 ) ;
#211 = CARTESIAN_POINT ( 'NONE',  ( -0.1875000000000000300, 0.08000000000000000200, 0.06200000000000000000 ) ) ;
#212 = ADVANCED_FACE ( 'NONE', ( #221 ), #438, .F. ) ;
#213 = CIRCLE ( 'NONE', #28, 0.07800000000000002800 ) ;
#214 = EDGE_CURVE ( 'NONE', #287, #338, #427, .T. ) ;
#215 = EDGE_CURVE ( 'NONE', #159, #584, #339, .T. ) ;
#216 = DIRECTION ( 'NONE',  ( 1.000000000000000000, 0.0000000000000000000, 0.0000000000000000000 ) ) ;
#217 = ORIENTED_EDGE ( 'NONE', *, *, #229, .F. ) ;
#218 = VECTOR ( 'NONE', #36, 39.37007874015748100 ) ;
#219 = ORIENTED_EDGE ( 'NONE', *, *, #370, .F. ) ;
#220 = CARTESIAN_POINT ( 'NONE',  ( 0.1875000000000000300, -5.143516556418884400E-017, 0.5000000000000000000 ) ) ;
#221 = FACE_OUTER_BOUND ( 'NONE', #565, .T. ) ;
#222 = ADVANCED_FACE ( 'NONE', ( #105 ), #440, .F. ) ;
#223 = CARTESIAN_POINT ( 'NONE',  ( 0.1875000000000000300, 0.08000000000000000200, 0.06200000000000000000 ) ) ;
#224 = EDGE_LOOP ( 'NONE', ( #591, #48, #79, #472 ) ) ;
#225 = EDGE_CURVE ( 'NONE', #287, #579, #530, .T. ) ;
#226 = CARTESIAN_POINT ( 'NONE',  ( 0.0000000000000000000, 0.06199999999999994400, 0.4059999999999999700 ) ) ;
#227 = DIRECTION ( 'NONE',  ( 0.0000000000000000000, -1.000000000000000000, -1.119677073506151000E-016 ) ) ;
#228 = VECTOR ( 'NONE', #553, 39.37007874015748100 ) ;
#229 = EDGE_CURVE ( 'NONE', #232, #636, #145, .T. ) ;
#230 = FACE_OUTER_BOUND ( 'NONE', #477, .T. ) ;
#231 = CARTESIAN_POINT ( 'NONE',  ( 0.1875000000000000300, 1.187000000000000100, 0.06200000000000000000 ) ) ;
#232 = VERTEX_POINT ( 'NONE', #122 ) ;
#233 = CARTESIAN_POINT ( 'NONE',  ( 0.07800000000000000000, 0.06199999999999996500, 0.2659999999999999600 ) ) ;
#234 = ORIENTED_EDGE ( 'NONE', *, *, #554, .F. ) ;
#235 = ORIENTED_EDGE ( 'NONE', *, *, #730, .T. ) ;
#236 = CARTESIAN_POINT ( 'NONE',  ( -0.1875000000000000300, 0.08000000000000000200, 0.06200000000000000000 ) ) ;
#237 = MECHANICAL_DESIGN_GEOMETRIC_PRESENTATION_REPRESENTATION (  '', ( #165 ), #279 ) ;
#238 = ADVANCED_BREP_SHAPE_REPRESENTATION ( '', ( #729, #358 ), #326 ) ;
#239 = VECTOR ( 'NONE', #319, 39.37007874015748100 ) ;
#240 = EDGE_LOOP ( 'NONE', ( #206, #311, #722, #404 ) ) ;
#241 = DIRECTION ( 'NONE',  ( 0.0000000000000000000, 0.0000000000000000000, 1.000000000000000000 ) ) ;
#242 = AXIS2_PLACEMENT_3D ( 'NONE', #90, #192, #485 ) ;
#243 = CARTESIAN_POINT ( 'NONE',  ( 0.0000000000000000000, 0.06199999999999995800, 0.3279999999999999600 ) ) ;
#244 = SHAPE_REPRESENTATION_RELATIONSHIP ( 'NONE' , 'NONE' ,  #144, #238 ) ;
#245 = ORIENTED_EDGE ( 'NONE', *, *, #347, .F. ) ;
#246 = EDGE_LOOP ( 'NONE', ( #447, #34, #480, #110 ) ) ;
#247 = DIRECTION ( 'NONE',  ( 1.000000000000000000, 0.0000000000000000000, 0.0000000000000000000 ) ) ;
#248 = CIRCLE ( 'NONE', #528, 0.07800000000000000000 ) ;
#249 = DIRECTION ( 'NONE',  ( -0.0000000000000000000, 1.000000000000000000, 1.224646799147353700E-016 ) ) ;
#250 = DIRECTION ( 'NONE',  ( 1.000000000000000000, 0.0000000000000000000, 0.0000000000000000000 ) ) ;
#251 = EDGE_CURVE ( 'NONE', #112, #624, #648, .T. ) ;
#252 = EDGE_CURVE ( 'NONE', #626, #11, #115, .T. ) ;
#253 = CARTESIAN_POINT ( 'NONE',  ( 0.07800000000000009700, 0.2809999999999999700, 0.06200000000000000000 ) ) ;
#254 = CARTESIAN_POINT ( 'NONE',  ( 0.0000000000000000000, 0.0000000000000000000, 0.0000000000000000000 ) ) ;
#255 = DIRECTION ( 'NONE',  ( 0.0000000000000000000, 0.0000000000000000000, 1.000000000000000000 ) ) ;
#256 = EDGE_LOOP ( 'NONE', ( #644, #234, #267, #245, #495 ) ) ;
#257 = CARTESIAN_POINT ( 'NONE',  ( 1.910449006669873200E-017, 1.030999999999999900, 0.06200000000000000000 ) ) ;
#258 = DIRECTION ( 'NONE',  ( -1.000000000000000000, -0.0000000000000000000, -0.0000000000000000000 ) ) ;
#259 = FACE_OUTER_BOUND ( 'NONE', #675, .T. ) ;
#260 = DIRECTION ( 'NONE',  ( -0.0000000000000000000, 1.000000000000000000, 1.224646799147353700E-016 ) ) ;
#261 = CARTESIAN_POINT ( 'NONE',  ( -0.1875000000000000300, 0.06199999999999999300, 0.07999999999999998800 ) ) ;
#262 = ORIENTED_EDGE ( 'NONE', *, *, #309, .F. ) ;
#263 = PLANE ( 'NONE',  #175 ) ;
#264 = CARTESIAN_POINT ( 'NONE',  ( 0.1875000000000000300, 0.08000000000000000200, 0.0000000000000000000 ) ) ;
#265 = CARTESIAN_POINT ( 'NONE',  ( -0.1875000000000000300, 1.187000000000000100, 0.0000000000000000000 ) ) ;
#266 = DIRECTION ( 'NONE',  ( -1.000000000000000000, -0.0000000000000000000, -0.0000000000000000000 ) ) ;
#267 = ORIENTED_EDGE ( 'NONE', *, *, #664, .F. ) ;
#268 = ADVANCED_FACE ( 'NONE', ( #88 ), #592, .T. ) ;
#269 = EDGE_LOOP ( 'NONE', ( #297, #163, #684, #55 ) ) ;
#270 = EDGE_LOOP ( 'NONE', ( #573, #157, #217, #12 ) ) ;
#271 = ADVANCED_FACE ( 'NONE', ( #318, #620, #161 ), #582, .F. ) ;
#272 = LINE ( 'NONE', #264, #160 ) ;
#273 = EDGE_CURVE ( 'NONE', #83, #182, #345, .T. ) ;
#274 = EDGE_CURVE ( 'NONE', #476, #461, #719, .T. ) ;
#275 = EDGE_LOOP ( 'NONE', ( #691, #632, #76, #505 ) ) ;
#276 = EDGE_LOOP ( 'NONE', ( #617, #653, #164, #322 ) ) ;
#277 = LINE ( 'NONE', #428, #471 ) ;
#278 = VECTOR ( 'NONE', #405, 39.37007874015748100 ) ;
#279 =( GEOMETRIC_REPRESENTATION_CONTEXT ( 3 ) GLOBAL_UNCERTAINTY_ASSIGNED_CONTEXT ( ( #686 ) ) GLOBAL_UNIT_ASSIGNED_CONTEXT ( ( #310, #301, #413 ) ) REPRESENTATION_CONTEXT ( 'NONE', 'WORKASPACE' ) );
#280 = ORIENTED_EDGE ( 'NONE', *, *, #104, .F. ) ;
#281 = ADVANCED_FACE ( 'NONE', ( #532 ), #557, .F. ) ;
#282 = FACE_BOUND ( 'NONE', #618, .T. ) ;
#283 = AXIS2_PLACEMENT_3D ( 'NONE', #306, #414, #91 ) ;
#284 = CARTESIAN_POINT ( 'NONE',  ( -0.1875000000000000300, 0.0000000000000000000, 0.07999999999999998800 ) ) ;
#285 = DIRECTION ( 'NONE',  ( 2.753879025871237300E-016, 1.376939512935618600E-016, -1.000000000000000000 ) ) ;
#286 = EDGE_CURVE ( 'NONE', #603, #41, #173, .T. ) ;
#287 = VERTEX_POINT ( 'NONE', #709 ) ;
#288 = EDGE_CURVE ( 'NONE', #626, #338, #619, .T. ) ;
#289 = CIRCLE ( 'NONE', #713, 0.07800000000000002800 ) ;
#290 = ORIENTED_EDGE ( 'NONE', *, *, #664, .T. ) ;
#291 = CARTESIAN_POINT ( 'NONE',  ( 0.1875000000000000300, 1.187000000000000100, 0.06200000000000000000 ) ) ;
#292 = FACE_OUTER_BOUND ( 'NONE', #555, .T. ) ;
#293 = DIRECTION ( 'NONE',  ( -1.000000000000000000, 0.0000000000000000000, 0.0000000000000000000 ) ) ;
#294 = CARTESIAN_POINT ( 'NONE',  ( -1.700083169787643900E-017, -3.414809992080329000E-017, 0.2659999999999999600 ) ) ;
#295 = VECTOR ( 'NONE', #285, 39.37007874015748100 ) ;
#296 = ORIENTED_EDGE ( 'NONE', *, *, #507, .F. ) ;
#297 = ORIENTED_EDGE ( 'NONE', *, *, #251, .F. ) ;
#298 = CARTESIAN_POINT ( 'NONE',  ( 0.07800000000000004200, 1.030999999999999900, 0.06200000000000000000 ) ) ;
#299 = CARTESIAN_POINT ( 'NONE',  ( 0.1875000000000000300, 1.187000000000000100, 0.06200000000000000000 ) ) ;
#300 = VECTOR ( 'NONE', #120, 39.37007874015748100 ) ;
#301 =( NAMED_UNIT ( * ) PLANE_ANGLE_UNIT ( ) SI_UNIT ( $, .RADIAN. ) );
#302 = VECTOR ( 'NONE', #583, 39.37007874015748100 ) ;
#303 = PLANE ( 'NONE',  #604 ) ;
#304 = DIRECTION ( 'NONE',  ( 0.0000000000000000000, 0.0000000000000000000, 1.000000000000000000 ) ) ;
#305 = EDGE_CURVE ( 'NONE', #636, #624, #272, .T. ) ;
#306 = CARTESIAN_POINT ( 'NONE',  ( 1.109530000027502100E-016, 0.2809999999999999700, 0.0000000000000000000 ) ) ;
#307 = APPLICATION_CONTEXT ( 'automotive_design' ) ;
#308 = DIRECTION ( 'NONE',  ( -1.000000000000000000, -0.0000000000000000000, -0.0000000000000000000 ) ) ;
#309 = EDGE_CURVE ( 'NONE', #654, #154, #119, .T. ) ;
#310 =( CONVERSION_BASED_UNIT ( 'INCH', #702 ) LENGTH_UNIT ( ) NAMED_UNIT ( #350 ) );
#311 = ORIENTED_EDGE ( 'NONE', *, *, #225, .F. ) ;
#312 = CARTESIAN_POINT ( 'NONE',  ( 0.1875000000000000300, 0.08000000000000000200, 0.0000000000000000000 ) ) ;
#313 = FACE_BOUND ( 'NONE', #256, .T. ) ;
#314 = ORIENTED_EDGE ( 'NONE', *, *, #215, .T. ) ;
#315 = CARTESIAN_POINT ( 'NONE',  ( 0.1875000000000000300, 0.08000000000000000200, 0.0000000000000000000 ) ) ;
#316 = CARTESIAN_POINT ( 'NONE',  ( 0.1875000000000000300, 0.06199999999999999300, 0.07999999999999998800 ) ) ;
#317 = CARTESIAN_POINT ( 'NONE',  ( 1.109530000027502100E-016, 0.2809999999999999700, 0.0000000000000000000 ) ) ;
#318 = FACE_BOUND ( 'NONE', #381, .T. ) ;
#319 = DIRECTION ( 'NONE',  ( -2.753879025871235300E-016, -1.376939512935617700E-016, 1.000000000000000000 ) ) ;
#320 = CARTESIAN_POINT ( 'NONE',  ( 0.1875000000000000300, -5.143516556418884400E-017, 0.5000000000000000000 ) ) ;
#321 = DIRECTION ( 'NONE',  ( 2.753879025871237300E-016, 0.0000000000000000000, -1.000000000000000000 ) ) ;
#322 = ORIENTED_EDGE ( 'NONE', *, *, #368, .T. ) ;
#323 = CARTESIAN_POINT ( 'NONE',  ( 1.109530000027502100E-016, 0.2809999999999999700, 0.0000000000000000000 ) ) ;
#324 = ORIENTED_EDGE ( 'NONE', *, *, #86, .T. ) ;
#325 = DIRECTION ( 'NONE',  ( 0.0000000000000000000, 0.0000000000000000000, 1.000000000000000000 ) ) ;
#326 =( GEOMETRIC_REPRESENTATION_CONTEXT ( 3 ) GLOBAL_UNCERTAINTY_ASSIGNED_CONTEXT ( ( #80 ) ) GLOBAL_UNIT_ASSIGNED_CONTEXT ( ( #420, #195, #20 ) ) REPRESENTATION_CONTEXT ( 'NONE', 'WORKASPACE' ) );
#327 = CARTESIAN_POINT ( 'NONE',  ( -0.07800000000000000000, -3.217671989988303600E-017, 0.3279999999999999000 ) ) ;
#328 = CARTESIAN_POINT ( 'NONE',  ( 0.1875000000000000300, 0.06199999999999999300, 0.07999999999999998800 ) ) ;
#329 = ORIENTED_EDGE ( 'NONE', *, *, #187, .T. ) ;
#330 = ORIENTED_EDGE ( 'NONE', *, *, #274, .F. ) ;
#331 = CIRCLE ( 'NONE', #502, 0.01800000000000000200 ) ;
#332 = AXIS2_PLACEMENT_3D ( 'NONE', #139, #527, #475 ) ;
#333 = ORIENTED_EDGE ( 'NONE', *, *, #484, .F. ) ;
#334 = PLANE ( 'NONE',  #612 ) ;
#335 = EDGE_CURVE ( 'NONE', #62, #182, #627, .T. ) ;
#336 = VECTOR ( 'NONE', #541, 39.37007874015748100 ) ;
#337 = EDGE_CURVE ( 'NONE', #716, #121, #132, .T. ) ;
#338 = VERTEX_POINT ( 'NONE', #316 ) ;
#339 = CIRCLE ( 'NONE', #567, 0.07800000000000000000 ) ;
#340 = EDGE_LOOP ( 'NONE', ( #97, #333, #597, #640 ) ) ;
#341 = ORIENTED_EDGE ( 'NONE', *, *, #512, .F. ) ;
#342 = FACE_BOUND ( 'NONE', #570, .T. ) ;
#343 = VERTEX_POINT ( 'NONE', #705 ) ;
#344 = ORIENTED_EDGE ( 'NONE', *, *, #580, .T. ) ;
#345 = LINE ( 'NONE', #588, #300 ) ;
#346 = PLANE ( 'NONE',  #101 ) ;
#347 = EDGE_CURVE ( 'NONE', #659, #704, #383, .T. ) ;
#348 = DIRECTION ( 'NONE',  ( 0.0000000000000000000, -1.224646799147352700E-016, 1.000000000000000000 ) ) ;
#349 = ORIENTED_EDGE ( 'NONE', *, *, #730, .F. ) ;
#350 = DIMENSIONAL_EXPONENTS ( 1.000000000000000000, 0.0000000000000000000, 0.0000000000000000000, 0.0000000000000000000, 0.0000000000000000000, 0.0000000000000000000, 0.0000000000000000000 ) ;
#351 = FACE_BOUND ( 'NONE', #408, .T. ) ;
#352 = EDGE_LOOP ( 'NONE', ( #630, #25, #93, #52 ) ) ;
#353 = EDGE_CURVE ( 'NONE', #338, #83, #575, .T. ) ;
#354 = VECTOR ( 'NONE', #258, 39.37007874015748100 ) ;
#355 = CARTESIAN_POINT ( 'NONE',  ( -0.1875000000000000300, 0.08000000000000000200, 0.0000000000000000000 ) ) ;
#356 = LINE ( 'NONE', #170, #504 ) ;
#357 = ORIENTED_EDGE ( 'NONE', *, *, #370, .T. ) ;
#358 = AXIS2_PLACEMENT_3D ( 'NONE', #254, #486, #361 ) ;
#359 = LINE ( 'NONE', #663, #646 ) ;
#360 = DIRECTION ( 'NONE',  ( -0.0000000000000000000, -0.0000000000000000000, 1.000000000000000000 ) ) ;
#361 = DIRECTION ( 'NONE',  ( 1.000000000000000000, 0.0000000000000000000, 0.0000000000000000000 ) ) ;
#362 = PRESENTATION_LAYER_ASSIGNMENT (  '', '', ( #165 ) ) ;
#363 = CARTESIAN_POINT ( 'NONE',  ( -0.07799999999999997200, 0.06199999999999997200, 0.2659999999999999000 ) ) ;
#364 = PLANE ( 'NONE',  #111 ) ;
#365 =( NAMED_UNIT ( * ) PLANE_ANGLE_UNIT ( ) SI_UNIT ( $, .RADIAN. ) );
#366 = DIRECTION ( 'NONE',  ( -0.0000000000000000000, -1.000000000000000000, -0.0000000000000000000 ) ) ;
#367 = ORIENTED_EDGE ( 'NONE', *, *, #397, .T. ) ;
#368 = EDGE_CURVE ( 'NONE', #461, #476, #681, .T. ) ;
#369 = FILL_AREA_STYLE_COLOUR ( '', #193 ) ;
#370 = EDGE_CURVE ( 'NONE', #584, #526, #446, .T. ) ;
#371 = CARTESIAN_POINT ( 'NONE',  ( -0.07799999999999988900, 0.2809999999999999700, 0.0000000000000000000 ) ) ;
#372 = CARTESIAN_POINT ( 'NONE',  ( 0.0000000000000000000, -5.223736993435347700E-017, 0.4059999999999999700 ) ) ;
#373 = DIRECTION ( 'NONE',  ( 0.0000000000000000000, 0.0000000000000000000, 1.000000000000000000 ) ) ;
#374 = FACE_OUTER_BOUND ( 'NONE', #270, .T. ) ;
#375 = ORIENTED_EDGE ( 'NONE', *, *, #17, .F. ) ;
#376 = CARTESIAN_POINT ( 'NONE',  ( 0.1875000000000000300, 1.187000000000000100, 0.06200000000000000000 ) ) ;
#377 = VECTOR ( 'NONE', #260, 39.37007874015748100 ) ;
#378 = CARTESIAN_POINT ( 'NONE',  ( -0.07800000000000000000, 0.06199999999999996500, 0.2659999999999999600 ) ) ;
#379 = CARTESIAN_POINT ( 'NONE',  ( 0.1875000000000000300, 0.08000000000000000200, 0.06200000000000000000 ) ) ;
#380 = CARTESIAN_POINT ( 'NONE',  ( -0.1875000000000000300, 0.06199999999999993700, 0.5000000000000000000 ) ) ;
#381 = EDGE_LOOP ( 'NONE', ( #473, #330 ) ) ;
#382 = AXIS2_PLACEMENT_3D ( 'NONE', #261, #499, #325 ) ;
#383 = CIRCLE ( 'NONE', #418, 0.07800000000000002800 ) ;
#384 = EDGE_CURVE ( 'NONE', #16, #461, #610, .T. ) ;
#385 = AXIS2_PLACEMENT_3D ( 'NONE', #474, #467, #241 ) ;
#386 = ORIENTED_EDGE ( 'NONE', *, *, #580, .F. ) ;
#387 = DIRECTION ( 'NONE',  ( 0.0000000000000000000, 0.0000000000000000000, 1.000000000000000000 ) ) ;
#388 = FACE_OUTER_BOUND ( 'NONE', #503, .T. ) ;
#389 = ORIENTED_EDGE ( 'NONE', *, *, #677, .F. ) ;
#390 = ORIENTED_EDGE ( 'NONE', *, *, #424, .T. ) ;
#391 = CIRCLE ( 'NONE', #410, 0.07800000000000002800 ) ;
#392 = STYLED_ITEM ( 'NONE', ( #469 ), #238 ) ;
#393 = ORIENTED_EDGE ( 'NONE', *, *, #49, .T. ) ;
#394 = ORIENTED_EDGE ( 'NONE', *, *, #273, .F. ) ;
#395 = VECTOR ( 'NONE', #425, 39.37007874015748100 ) ;
#396 = DIRECTION ( 'NONE',  ( 0.0000000000000000000, 0.0000000000000000000, -1.000000000000000000 ) ) ;
#397 = EDGE_CURVE ( 'NONE', #636, #287, #563, .T. ) ;
#398 = EDGE_CURVE ( 'NONE', #654, #626, #517, .T. ) ;
#399 = ORIENTED_EDGE ( 'NONE', *, *, #155, .F. ) ;
#400 = DIRECTION ( 'NONE',  ( 0.0000000000000000000, 1.000000000000000000, 1.224646799147353500E-016 ) ) ;
#401 = DIRECTION ( 'NONE',  ( -0.0000000000000000000, -0.0000000000000000000, 1.000000000000000000 ) ) ;
#402 = CIRCLE ( 'NONE', #129, 0.07800000000000002800 ) ;
#403 = PLANE ( 'NONE',  #657 ) ;
#404 = ORIENTED_EDGE ( 'NONE', *, *, #484, .T. ) ;
#405 = DIRECTION ( 'NONE',  ( -1.000000000000000000, -0.0000000000000000000, -0.0000000000000000000 ) ) ;
#406 = DIRECTION ( 'NONE',  ( 0.0000000000000000000, -1.094490382077028200E-016, 1.000000000000000000 ) ) ;
#407 = ORIENTED_EDGE ( 'NONE', *, *, #424, .F. ) ;
#408 = EDGE_LOOP ( 'NONE', ( #324, #671 ) ) ;
#409 = DIRECTION ( 'NONE',  ( -0.0000000000000000000, -1.000000000000000000, -0.0000000000000000000 ) ) ;
#410 = AXIS2_PLACEMENT_3D ( 'NONE', #596, #38, #547 ) ;
#411 = ADVANCED_FACE ( 'NONE', ( #460 ), #334, .T. ) ;
#412 = VECTOR ( 'NONE', #360, 39.37007874015748100 ) ;
#413 =( NAMED_UNIT ( * ) SI_UNIT ( $, .STERADIAN. ) SOLID_ANGLE_UNIT ( ) );
#414 = DIRECTION ( 'NONE',  ( 0.0000000000000000000, 0.0000000000000000000, 1.000000000000000000 ) ) ;
#415 = APPLICATION_PROTOCOL_DEFINITION ( 'draft international standard', 'automotive_design', 1998, #490 ) ;
#416 = ADVANCED_FACE ( 'NONE', ( #342, #180 ), #444, .T. ) ;
#417 = EDGE_CURVE ( 'NONE', #445, #83, #126, .T. ) ;
#418 = AXIS2_PLACEMENT_3D ( 'NONE', #656, #423, #699 ) ;
#419 = DIRECTION ( 'NONE',  ( 0.0000000000000000000, 0.0000000000000000000, 1.000000000000000000 ) ) ;
#420 =( CONVERSION_BASED_UNIT ( 'INCH', #525 ) LENGTH_UNIT ( ) NAMED_UNIT ( #569 ) );
#421 = DIRECTION ( 'NONE',  ( -0.0000000000000000000, -0.0000000000000000000, 1.000000000000000000 ) ) ;
#422 = DIRECTION ( 'NONE',  ( 0.0000000000000000000, 0.0000000000000000000, -1.000000000000000000 ) ) ;
#423 = DIRECTION ( 'NONE',  ( 0.0000000000000000000, 1.000000000000000000, 1.224646799147353500E-016 ) ) ;
#424 = EDGE_CURVE ( 'NONE', #5, #142, #590, .T. ) ;
#425 = DIRECTION ( 'NONE',  ( -0.0000000000000000000, 1.000000000000000000, 1.224646799147353700E-016 ) ) ;
#426 = DIRECTION ( 'NONE',  ( -0.0000000000000000000, 1.000000000000000000, 1.224646799147353700E-016 ) ) ;
#427 = LINE ( 'NONE', #78, #45 ) ;
#428 = CARTESIAN_POINT ( 'NONE',  ( 0.1875000000000000300, 0.08000000000000000200, 0.06200000000000000000 ) ) ;
#429 = PLANE ( 'NONE',  #451 ) ;
#430 = PRESENTATION_LAYER_ASSIGNMENT (  '', '', ( #392 ) ) ;
#431 = DIRECTION ( 'NONE',  ( 1.000000000000000000, 0.0000000000000000000, -0.0000000000000000000 ) ) ;
#432 = PLANE ( 'NONE',  #382 ) ;
#433 = LINE ( 'NONE', #138, #4 ) ;
#434 = VERTEX_POINT ( 'NONE', #436 ) ;
#435 = ORIENTED_EDGE ( 'NONE', *, *, #117, .F. ) ;
#436 = CARTESIAN_POINT ( 'NONE',  ( -0.1875000000000000300, 0.06199999999999999300, 0.07999999999999998800 ) ) ;
#437 = DIRECTION ( 'NONE',  ( 1.000000000000000000, 0.0000000000000000000, 0.0000000000000000000 ) ) ;
#438 = CYLINDRICAL_SURFACE ( 'NONE', #678, 0.07800000000000002800 ) ;
#439 = ADVANCED_FACE ( 'NONE', ( #313, #726 ), #509, .F. ) ;
#440 = CYLINDRICAL_SURFACE ( 'NONE', #19, 0.07800000000000000000 ) ;
#441 = ORIENTED_EDGE ( 'NONE', *, *, #536, .F. ) ;
#442 = EDGE_CURVE ( 'NONE', #154, #11, #40, .T. ) ;
#443 = EDGE_CURVE ( 'NONE', #287, #445, #433, .T. ) ;
#444 = PLANE ( 'NONE',  #683 ) ;
#445 = VERTEX_POINT ( 'NONE', #533 ) ;
#446 = LINE ( 'NONE', #487, #218 ) ;
#447 = ORIENTED_EDGE ( 'NONE', *, *, #104, .T. ) ;
#448 = CARTESIAN_POINT ( 'NONE',  ( 1.910449006669873200E-017, 1.030999999999999900, 0.06200000000000000000 ) ) ;
#449 = SHAPE_DEFINITION_REPRESENTATION ( #89, #144 ) ;
#450 = ORIENTED_EDGE ( 'NONE', *, *, #65, .T. ) ;
#451 = AXIS2_PLACEMENT_3D ( 'NONE', #320, #545, #599 ) ;
#452 = CARTESIAN_POINT ( 'NONE',  ( -0.07800000000000000000, -3.414809992080329000E-017, 0.2659999999999999600 ) ) ;
#453 = PRODUCT ( '1570', '1570', '', ( #141 ) ) ;
#454 = ORIENTED_EDGE ( 'NONE', *, *, #397, .F. ) ;
#455 = DIRECTION ( 'NONE',  ( -1.000000000000000000, 0.0000000000000000000, -0.0000000000000000000 ) ) ;
#456 = LINE ( 'NONE', #22, #607 ) ;
#457 = EDGE_CURVE ( 'NONE', #150, #511, #213, .T. ) ;
#458 = ORIENTED_EDGE ( 'NONE', *, *, #167, .T. ) ;
#459 = AXIS2_PLACEMENT_3D ( 'NONE', #543, #373, #216 ) ;
#460 = FACE_OUTER_BOUND ( 'NONE', #513, .T. ) ;
#461 = VERTEX_POINT ( 'NONE', #253 ) ;
#462 = CARTESIAN_POINT ( 'NONE',  ( 0.1875000000000000300, 0.08000000000000000200, 0.0000000000000000000 ) ) ;
#463 = VECTOR ( 'NONE', #409, 39.37007874015748100 ) ;
#464 = CARTESIAN_POINT ( 'NONE',  ( 0.07800000000000000000, 0.06199999999999996500, 0.2659999999999999600 ) ) ;
#465 = EDGE_CURVE ( 'NONE', #626, #636, #277, .T. ) ;
#466 = ORIENTED_EDGE ( 'NONE', *, *, #443, .F. ) ;
#467 = DIRECTION ( 'NONE',  ( -1.000000000000000000, -0.0000000000000000000, -0.0000000000000000000 ) ) ;
#468 = MECHANICAL_DESIGN_GEOMETRIC_PRESENTATION_REPRESENTATION (  '', ( #392 ), #514 ) ;
#469 = PRESENTATION_STYLE_ASSIGNMENT (( #642 ) ) ;
#470 = CARTESIAN_POINT ( 'NONE',  ( 0.1875000000000000300, 0.0000000000000000000, 0.07999999999999998800 ) ) ;
#471 = VECTOR ( 'NONE', #707, 39.37007874015748100 ) ;
#472 = ORIENTED_EDGE ( 'NONE', *, *, #309, .T. ) ;
#473 = ORIENTED_EDGE ( 'NONE', *, *, #368, .F. ) ;
#474 = CARTESIAN_POINT ( 'NONE',  ( 0.1875000000000000300, 0.08000000000000000200, 0.08000000000000000200 ) ) ;
#475 = DIRECTION ( 'NONE',  ( 0.0000000000000000000, -1.224646799147353700E-016, 1.000000000000000000 ) ) ;
#476 = VERTEX_POINT ( 'NONE', #35 ) ;
#477 = EDGE_LOOP ( 'NONE', ( #42, #61, #552, #205 ) ) ;
#478 = DIRECTION ( 'NONE',  ( 0.0000000000000000000, 0.0000000000000000000, -1.000000000000000000 ) ) ;
#479 = SURFACE_STYLE_FILL_AREA ( #538 ) ;
#480 = ORIENTED_EDGE ( 'NONE', *, *, #288, .F. ) ;
#481 = VECTOR ( 'NONE', #647, 39.37007874015748100 ) ;
#482 = ORIENTED_EDGE ( 'NONE', *, *, #155, .T. ) ;
#483 = DIRECTION ( 'NONE',  ( 0.0000000000000000000, -1.224646799147354200E-016, 1.000000000000000000 ) ) ;
#484 = EDGE_CURVE ( 'NONE', #445, #62, #616, .T. ) ;
#485 = DIRECTION ( 'NONE',  ( 0.0000000000000000000, -1.224646799147353700E-016, 1.000000000000000000 ) ) ;
#486 = DIRECTION ( 'NONE',  ( 0.0000000000000000000, 0.0000000000000000000, 1.000000000000000000 ) ) ;
#487 = CARTESIAN_POINT ( 'NONE',  ( -0.07800000000000000000, -3.414809992080329000E-017, 0.2659999999999999600 ) ) ;
#488 = CARTESIAN_POINT ( 'NONE',  ( -0.07800000000000000000, -4.268512490100411300E-017, 0.3279999999999999000 ) ) ;
#489 = CARTESIAN_POINT ( 'NONE',  ( -0.1875000000000000300, -5.143516556418884400E-017, 0.5000000000000000000 ) ) ;
#490 = APPLICATION_CONTEXT ( 'automotive_design' ) ;
#491 = CARTESIAN_POINT ( 'NONE',  ( 1.109530000027502100E-016, 0.2809999999999999700, 0.0000000000000000000 ) ) ;
#492 = CARTESIAN_POINT ( 'NONE',  ( -0.1875000000000000300, 0.08000000000000000200, 0.0000000000000000000 ) ) ;
#493 = DIRECTION ( 'NONE',  ( 0.0000000000000000000, -1.224646799147352700E-016, 1.000000000000000000 ) ) ;
#494 = PRESENTATION_STYLE_ASSIGNMENT (( #18 ) ) ;
#495 = ORIENTED_EDGE ( 'NONE', *, *, #47, .F. ) ;
#496 = LINE ( 'NONE', #9, #672 ) ;
#497 = CARTESIAN_POINT ( 'NONE',  ( 0.07800000000000004200, 1.030999999999999900, 0.0000000000000000000 ) ) ;
#498 = DIRECTION ( 'NONE',  ( -0.0000000000000000000, 0.0000000000000000000, -1.000000000000000000 ) ) ;
#499 = DIRECTION ( 'NONE',  ( -1.000000000000000000, 0.0000000000000000000, 0.0000000000000000000 ) ) ;
#500 = CYLINDRICAL_SURFACE ( 'NONE', #639, 0.07800000000000002800 ) ;
#501 = ADVANCED_FACE ( 'NONE', ( #388 ), #263, .F. ) ;
#502 = AXIS2_PLACEMENT_3D ( 'NONE', #701, #33, #149 ) ;
#503 = EDGE_LOOP ( 'NONE', ( #290, #349, #153, #393 ) ) ;
#504 = VECTOR ( 'NONE', #566, 39.37007874015748100 ) ;
#505 = ORIENTED_EDGE ( 'NONE', *, *, #49, .F. ) ;
#506 = PRODUCT_DEFINITION_CONTEXT ( 'detailed design', #307, 'design' ) ;
#507 = EDGE_CURVE ( 'NONE', #624, #11, #158, .T. ) ;
#508 = AXIS2_PLACEMENT_3D ( 'NONE', #51, #107, #387 ) ;
#509 = PLANE ( 'NONE',  #70 ) ;
#510 = CLOSED_SHELL ( 'NONE', ( #727, #714, #199, #54, #411, #58, #68, #439, #85, #416, #268, #549, #44, #271, #281, #665, #59, #212, #43, #222, #501, #718, #515 ) ) ;
#511 = VERTEX_POINT ( 'NONE', #497 ) ;
#512 = EDGE_CURVE ( 'NONE', #154, #112, #643, .T. ) ;
#513 = EDGE_LOOP ( 'NONE', ( #466, #123, #542, #712 ) ) ;
#514 =( GEOMETRIC_REPRESENTATION_CONTEXT ( 3 ) GLOBAL_UNCERTAINTY_ASSIGNED_CONTEXT ( ( #184 ) ) GLOBAL_UNIT_ASSIGNED_CONTEXT ( ( #529, #365, #133 ) ) REPRESENTATION_CONTEXT ( 'NONE', 'WORKASPACE' ) );
#515 = ADVANCED_FACE ( 'NONE', ( #259 ), #303, .F. ) ;
#516 = ORIENTED_EDGE ( 'NONE', *, *, #621, .T. ) ;
#517 = LINE ( 'NONE', #668, #601 ) ;
#518 = LINE ( 'NONE', #372, #377 ) ;
#519 = DIRECTION ( 'NONE',  ( 0.0000000000000000000, -1.094490382077028600E-016, 1.000000000000000000 ) ) ;
#520 = CARTESIAN_POINT ( 'NONE',  ( 0.0000000000000000000, -4.268512490100411300E-017, 0.3279999999999999600 ) ) ;
#521 = ORIENTED_EDGE ( 'NONE', *, *, #305, .F. ) ;
#522 = DIRECTION ( 'NONE',  ( 0.0000000000000000000, 0.0000000000000000000, 1.000000000000000000 ) ) ;
#523 = EDGE_LOOP ( 'NONE', ( #329, #394, #623, #113 ) ) ;
#524 = VECTOR ( 'NONE', #366, 39.37007874015748100 ) ;
#525 = LENGTH_MEASURE_WITH_UNIT ( LENGTH_MEASURE( 0.02539999999999999900 ), #534 );
#526 = VERTEX_POINT ( 'NONE', #327 ) ;
#527 = DIRECTION ( 'NONE',  ( -0.0000000000000000000, 1.000000000000000000, 1.224646799147353700E-016 ) ) ;
#528 = AXIS2_PLACEMENT_3D ( 'NONE', #323, #30, #207 ) ;
#529 =( CONVERSION_BASED_UNIT ( 'INCH', #10 ) LENGTH_UNIT ( ) NAMED_UNIT ( #628 ) );
#530 = LINE ( 'NONE', #470, #278 ) ;
#531 = DIRECTION ( 'NONE',  ( 0.0000000000000000000, 0.0000000000000000000, 1.000000000000000000 ) ) ;
#532 = FACE_OUTER_BOUND ( 'NONE', #246, .T. ) ;
#533 = CARTESIAN_POINT ( 'NONE',  ( 0.1875000000000000300, -5.143516556418884400E-017, 0.5000000000000000000 ) ) ;
#534 =( LENGTH_UNIT ( ) NAMED_UNIT ( * ) SI_UNIT ( $, .METRE. ) );
#535 = CARTESIAN_POINT ( 'NONE',  ( 0.1875000000000000300, 0.08000000000000000200, 0.06200000000000000000 ) ) ;
#536 = EDGE_CURVE ( 'NONE', #150, #142, #84, .T. ) ;
#537 = CARTESIAN_POINT ( 'NONE',  ( -0.1875000000000000300, -4.408728476930501100E-018, 0.07999999999999998800 ) ) ;
#538 = FILL_AREA_STYLE ('',( #87 ) ) ;
#539 = CARTESIAN_POINT ( 'NONE',  ( 0.1875000000000000300, 0.08000000000000000200, 0.08000000000000000200 ) ) ;
#540 = CARTESIAN_POINT ( 'NONE',  ( 0.1875000000000000300, 1.187000000000000100, 0.0000000000000000000 ) ) ;
#541 = DIRECTION ( 'NONE',  ( 0.0000000000000000000, 0.0000000000000000000, 1.000000000000000000 ) ) ;
#542 = ORIENTED_EDGE ( 'NONE', *, *, #353, .T. ) ;
#543 = CARTESIAN_POINT ( 'NONE',  ( 1.109530000027502100E-016, 0.2809999999999999700, 0.06200000000000000000 ) ) ;
#544 = AXIS2_PLACEMENT_3D ( 'NONE', #243, #202, #406 ) ;
#545 = DIRECTION ( 'NONE',  ( 0.0000000000000000000, 0.0000000000000000000, 1.000000000000000000 ) ) ;
#546 = DIRECTION ( 'NONE',  ( -1.000000000000000000, -0.0000000000000000000, -0.0000000000000000000 ) ) ;
#547 = DIRECTION ( 'NONE',  ( 1.000000000000000000, 0.0000000000000000000, 0.0000000000000000000 ) ) ;
#548 = DIRECTION ( 'NONE',  ( -0.0000000000000000000, 0.0000000000000000000, -1.000000000000000000 ) ) ;
#549 = ADVANCED_FACE ( 'NONE', ( #282, #351, #23 ), #208, .T. ) ;
#550 = PRODUCT_DEFINITION ( 'UNKNOWN', '', #662, #506 ) ;
#551 = DIRECTION ( 'NONE',  ( -2.753879025871235300E-016, 0.0000000000000000000, 1.000000000000000000 ) ) ;
#552 = ORIENTED_EDGE ( 'NONE', *, *, #442, .F. ) ;
#553 = DIRECTION ( 'NONE',  ( 0.0000000000000000000, -1.119677073506150800E-016, 1.000000000000000000 ) ) ;
#554 = EDGE_CURVE ( 'NONE', #3, #716, #685, .T. ) ;
#555 = EDGE_LOOP ( 'NONE', ( #341, #262, #458, #186 ) ) ;
#556 = VECTOR ( 'NONE', #201, 39.37007874015748100 ) ;
#557 = CYLINDRICAL_SURFACE ( 'NONE', #385, 0.01800000000000000200 ) ;
#558 = ORIENTED_EDGE ( 'NONE', *, *, #384, .F. ) ;
#559 = DIRECTION ( 'NONE',  ( -0.0000000000000000000, -0.0000000000000000000, 1.000000000000000000 ) ) ;
#560 = LINE ( 'NONE', #178, #725 ) ;
#561 = ORIENTED_EDGE ( 'NONE', *, *, #187, .F. ) ;
#562 = DIRECTION ( 'NONE',  ( 0.0000000000000000000, 1.000000000000000000, 0.0000000000000000000 ) ) ;
#563 = CIRCLE ( 'NONE', #508, 0.08000000000000000200 ) ;
#564 = EDGE_LOOP ( 'NONE', ( #435, #687, #176, #558 ) ) ;
#565 = EDGE_LOOP ( 'NONE', ( #441, #102, #450, #390 ) ) ;
#566 = DIRECTION ( 'NONE',  ( -0.0000000000000000000, 1.000000000000000000, 1.224646799147353700E-016 ) ) ;
#567 = AXIS2_PLACEMENT_3D ( 'NONE', #294, #183, #125 ) ;
#568 = CARTESIAN_POINT ( 'NONE',  ( 0.07800000000000000000, -3.414809992080329000E-017, 0.2659999999999999600 ) ) ;
#569 = DIMENSIONAL_EXPONENTS ( 1.000000000000000000, 0.0000000000000000000, 0.0000000000000000000, 0.0000000000000000000, 0.0000000000000000000, 0.0000000000000000000, 0.0000000000000000000 ) ;
#570 = EDGE_LOOP ( 'NONE', ( #314, #357, #344, #181, #177 ) ) ;
#571 = DIRECTION ( 'NONE',  ( 0.0000000000000000000, 0.0000000000000000000, 1.000000000000000000 ) ) ;
#572 = VECTOR ( 'NONE', #559, 39.37007874015748100 ) ;
#573 = ORIENTED_EDGE ( 'NONE', *, *, #398, .T. ) ;
#574 = DIRECTION ( 'NONE',  ( -1.000000000000000000, 0.0000000000000000000, 0.0000000000000000000 ) ) ;
#575 = LINE ( 'NONE', #98, #100 ) ;
#576 = DIRECTION ( 'NONE',  ( 1.000000000000000000, 0.0000000000000000000, 0.0000000000000000000 ) ) ;
#577 = DIRECTION ( 'NONE',  ( 0.0000000000000000000, -1.000000000000000000, 0.0000000000000000000 ) ) ;
#578 = LINE ( 'NONE', #233, #140 ) ;
#579 = VERTEX_POINT ( 'NONE', #284 ) ;
#580 = EDGE_CURVE ( 'NONE', #526, #603, #289, .T. ) ;
#581 = VECTOR ( 'NONE', #478, 39.37007874015748100 ) ;
#582 = PLANE ( 'NONE',  #106 ) ;
#583 = DIRECTION ( 'NONE',  ( -1.000000000000000000, -0.0000000000000000000, -0.0000000000000000000 ) ) ;
#584 = VERTEX_POINT ( 'NONE', #452 ) ;
#585 = DIRECTION ( 'NONE',  ( 1.000000000000000000, 0.0000000000000000000, 0.0000000000000000000 ) ) ;
#586 = DIRECTION ( 'NONE',  ( -0.0000000000000000000, 1.000000000000000000, 0.0000000000000000000 ) ) ;
#587 = DIRECTION ( 'NONE',  ( 0.0000000000000000000, 0.0000000000000000000, 1.000000000000000000 ) ) ;
#588 = CARTESIAN_POINT ( 'NONE',  ( 0.1875000000000000300, 0.06199999999999993700, 0.5000000000000000000 ) ) ;
#589 = ORIENTED_EDGE ( 'NONE', *, *, #621, .F. ) ;
#590 = CIRCLE ( 'NONE', #650, 0.07800000000000002800 ) ;
#591 = ORIENTED_EDGE ( 'NONE', *, *, #442, .T. ) ;
#592 = CYLINDRICAL_SURFACE ( 'NONE', #67, 0.08000000000000000200 ) ;
#593 = CARTESIAN_POINT ( 'NONE',  ( 0.07800000000000009700, 0.2809999999999999700, 0.0000000000000000000 ) ) ;
#594 = CARTESIAN_POINT ( 'NONE',  ( -0.07800000000000001400, 1.030999999999999900, 0.06200000000000000000 ) ) ;
#595 = CARTESIAN_POINT ( 'NONE',  ( 1.910449006669873200E-017, 1.030999999999999900, 0.0000000000000000000 ) ) ;
#596 = CARTESIAN_POINT ( 'NONE',  ( 1.910449006669873200E-017, 1.030999999999999900, 0.0000000000000000000 ) ) ;
#597 = ORIENTED_EDGE ( 'NONE', *, *, #417, .T. ) ;
#598 = CARTESIAN_POINT ( 'NONE',  ( 0.0000000000000000000, -4.268512490100411300E-017, 0.3279999999999999600 ) ) ;
#599 = DIRECTION ( 'NONE',  ( 1.000000000000000000, 0.0000000000000000000, -0.0000000000000000000 ) ) ;
#600 = CARTESIAN_POINT ( 'NONE',  ( -0.07800000000000000000, -3.414809992080329000E-017, 0.2659999999999999600 ) ) ;
#601 = VECTOR ( 'NONE', #608, 39.37007874015748100 ) ;
#602 = ORIENTED_EDGE ( 'NONE', *, *, #17, .T. ) ;
#603 = VERTEX_POINT ( 'NONE', #682 ) ;
#604 = AXIS2_PLACEMENT_3D ( 'NONE', #600, #32, #551 ) ;
#605 = CARTESIAN_POINT ( 'NONE',  ( 0.1875000000000000300, 0.06199999999999993700, 0.5000000000000000000 ) ) ;
#606 = DIRECTION ( 'NONE',  ( 0.0000000000000000000, 1.119677073506151000E-016, -1.000000000000000000 ) ) ;
#607 = VECTOR ( 'NONE', #249, 39.37007874015748100 ) ;
#608 = DIRECTION ( 'NONE',  ( -0.0000000000000000000, -1.000000000000000000, -0.0000000000000000000 ) ) ;
#609 = ORIENTED_EDGE ( 'NONE', *, *, #81, .T. ) ;
#610 = LINE ( 'NONE', #593, #572 ) ;
#611 = ORIENTED_EDGE ( 'NONE', *, *, #117, .T. ) ;
#612 = AXIS2_PLACEMENT_3D ( 'NONE', #379, #431, #498 ) ;
#613 = FACE_OUTER_BOUND ( 'NONE', #660, .T. ) ;
#614 = CARTESIAN_POINT ( 'NONE',  ( 0.1875000000000000300, 0.06199999999999999300, 0.07999999999999998800 ) ) ;
#615 = AXIS2_PLACEMENT_3D ( 'NONE', #491, #401, #437 ) ;
#616 = LINE ( 'NONE', #200, #172 ) ;
#617 = ORIENTED_EDGE ( 'NONE', *, *, #190, .F. ) ;
#618 = EDGE_LOOP ( 'NONE', ( #162, #611 ) ) ;
#619 = CIRCLE ( 'NONE', #136, 0.01800000000000000200 ) ;
#620 = FACE_BOUND ( 'NONE', #191, .T. ) ;
#621 = EDGE_CURVE ( 'NONE', #584, #716, #356, .T. ) ;
#622 = CARTESIAN_POINT ( 'NONE',  ( -1.700083169787643900E-017, 0.06199999999999996500, 0.2659999999999999600 ) ) ;
#623 = ORIENTED_EDGE ( 'NONE', *, *, #353, .F. ) ;
#624 = VERTEX_POINT ( 'NONE', #355 ) ;
#625 = FACE_OUTER_BOUND ( 'NONE', #693, .T. ) ;
#626 = VERTEX_POINT ( 'NONE', #223 ) ;
#627 = LINE ( 'NONE', #29, #556 ) ;
#628 = DIMENSIONAL_EXPONENTS ( 1.000000000000000000, 0.0000000000000000000, 0.0000000000000000000, 0.0000000000000000000, 0.0000000000000000000, 0.0000000000000000000, 0.0000000000000000000 ) ;
#629 = LINE ( 'NONE', #488, #395 ) ;
#630 = ORIENTED_EDGE ( 'NONE', *, *, #457, .F. ) ;
#631 = CARTESIAN_POINT ( 'NONE',  ( 1.109530000027502100E-016, 0.2809999999999999700, 0.06200000000000000000 ) ) ;
#632 = ORIENTED_EDGE ( 'NONE', *, *, #114, .T. ) ;
#633 = ORIENTED_EDGE ( 'NONE', *, *, #225, .T. ) ;
#634 = AXIS2_PLACEMENT_3D ( 'NONE', #622, #731, #519 ) ;
#635 = FILL_AREA_STYLE ('',( #369 ) ) ;
#636 = VERTEX_POINT ( 'NONE', #312 ) ;
#637 =( LENGTH_UNIT ( ) NAMED_UNIT ( * ) SI_UNIT ( $, .METRE. ) );
#638 =( LENGTH_UNIT ( ) NAMED_UNIT ( * ) SI_UNIT ( $, .METRE. ) );
#639 = AXIS2_PLACEMENT_3D ( 'NONE', #73, #131, #250 ) ;
#640 = ORIENTED_EDGE ( 'NONE', *, *, #273, .T. ) ;
#641 = DIRECTION ( 'NONE',  ( 0.0000000000000000000, 0.0000000000000000000, -1.000000000000000000 ) ) ;
#642 = SURFACE_STYLE_USAGE ( .BOTH. , #26 ) ;
#643 = LINE ( 'NONE', #203, #152 ) ;
#644 = ORIENTED_EDGE ( 'NONE', *, *, #337, .F. ) ;
#645 = CARTESIAN_POINT ( 'NONE',  ( -1.700083169787643900E-017, -3.414809992080329000E-017, 0.2659999999999999600 ) ) ;
#646 = VECTOR ( 'NONE', #426, 39.37007874015748100 ) ;
#647 = DIRECTION ( 'NONE',  ( -0.0000000000000000000, -0.0000000000000000000, 1.000000000000000000 ) ) ;
#648 = LINE ( 'NONE', #196, #463 ) ;
#649 = CARTESIAN_POINT ( 'NONE',  ( 0.1875000000000000300, 0.08000000000000000200, 0.06200000000000000000 ) ) ;
#650 = AXIS2_PLACEMENT_3D ( 'NONE', #448, #109, #1 ) ;
#651 = DIRECTION ( 'NONE',  ( -0.0000000000000000000, -0.0000000000000000000, 1.000000000000000000 ) ) ;
#652 = PLANE ( 'NONE',  #179 ) ;
#653 = ORIENTED_EDGE ( 'NONE', *, *, #732, .F. ) ;
#654 = VERTEX_POINT ( 'NONE', #231 ) ;
#655 = DIRECTION ( 'NONE',  ( 1.000000000000000000, 0.0000000000000000000, -0.0000000000000000000 ) ) ;
#656 = CARTESIAN_POINT ( 'NONE',  ( 0.0000000000000000000, 0.06199999999999995800, 0.3279999999999999600 ) ) ;
#657 = AXIS2_PLACEMENT_3D ( 'NONE', #291, #586, #96 ) ;
#658 = CYLINDRICAL_SURFACE ( 'NONE', #210, 0.07800000000000000000 ) ;
#659 = VERTEX_POINT ( 'NONE', #226 ) ;
#660 = EDGE_LOOP ( 'NONE', ( #669, #454, #171, #676 ) ) ;
#661 = CARTESIAN_POINT ( 'NONE',  ( -0.07800000000000001400, 1.030999999999999900, 0.0000000000000000000 ) ) ;
#662 = PRODUCT_DEFINITION_FORMATION_WITH_SPECIFIED_SOURCE ( 'ANY', '', #453, .NOT_KNOWN. ) ;
#663 = CARTESIAN_POINT ( 'NONE',  ( 0.07799999999999997200, -4.268512490100411300E-017, 0.3279999999999999000 ) ) ;
#664 = EDGE_CURVE ( 'NONE', #704, #3, #578, .T. ) ;
#665 = ADVANCED_FACE ( 'NONE', ( #374 ), #346, .F. ) ;
#666 = EDGE_LOOP ( 'NONE', ( #389, #521, #367, #633 ) ) ;
#667 = FACE_OUTER_BOUND ( 'NONE', #75, .T. ) ;
#668 = CARTESIAN_POINT ( 'NONE',  ( 0.1875000000000000300, 0.08000000000000000200, 0.06200000000000000000 ) ) ;
#669 = ORIENTED_EDGE ( 'NONE', *, *, #214, .F. ) ;
#670 = FACE_OUTER_BOUND ( 'NONE', #275, .T. ) ;
#671 = ORIENTED_EDGE ( 'NONE', *, *, #457, .T. ) ;
#672 = VECTOR ( 'NONE', #577, 39.37007874015748100 ) ;
#673 = VECTOR ( 'NONE', #21, 39.37007874015748100 ) ;
#674 = AXIS2_PLACEMENT_3D ( 'NONE', #462, #396, #455 ) ;
#675 = EDGE_LOOP ( 'NONE', ( #72, #399, #219, #516 ) ) ;
#676 = ORIENTED_EDGE ( 'NONE', *, *, #288, .T. ) ;
#677 = EDGE_CURVE ( 'NONE', #624, #579, #74, .T. ) ;
#678 = AXIS2_PLACEMENT_3D ( 'NONE', #189, #421, #134 ) ;
#679 = FACE_OUTER_BOUND ( 'NONE', #340, .T. ) ;
#680 = CARTESIAN_POINT ( 'NONE',  ( 0.1875000000000000300, 0.08000000000000000200, 0.08000000000000000200 ) ) ;
#681 = CIRCLE ( 'NONE', #459, 0.07800000000000000000 ) ;
#682 = CARTESIAN_POINT ( 'NONE',  ( 0.0000000000000000000, -5.223736993435347700E-017, 0.4059999999999999700 ) ) ;
#683 = AXIS2_PLACEMENT_3D ( 'NONE', #711, #103, #724 ) ;
#684 = ORIENTED_EDGE ( 'NONE', *, *, #229, .T. ) ;
#685 = CIRCLE ( 'NONE', #634, 0.07800000000000000000 ) ;
#686 = UNCERTAINTY_MEASURE_WITH_UNIT (LENGTH_MEASURE( 1.000000000000000100E-005 ), #310, 'distance_accuracy_value', 'NONE');
#687 = ORIENTED_EDGE ( 'NONE', *, *, #190, .T. ) ;
#688 = PRODUCT_RELATED_PRODUCT_CATEGORY ( 'part', '', ( #453 ) ) ;
#689 = DIRECTION ( 'NONE',  ( -0.0000000000000000000, -0.0000000000000000000, 1.000000000000000000 ) ) ;
#690 = DIRECTION ( 'NONE',  ( -1.000000000000000000, -0.0000000000000000000, -0.0000000000000000000 ) ) ;
#691 = ORIENTED_EDGE ( 'NONE', *, *, #286, .F. ) ;
#692 = EDGE_CURVE ( 'NONE', #41, #159, #53, .T. ) ;
#693 = EDGE_LOOP ( 'NONE', ( #728, #386, #482, #128 ) ) ;
#694 = CARTESIAN_POINT ( 'NONE',  ( -0.1875000000000000300, 0.08000000000000000200, 0.08000000000000000200 ) ) ;
#695 = CARTESIAN_POINT ( 'NONE',  ( 0.07799999999999997200, 0.06199999999999995800, 0.3279999999999999000 ) ) ;
#696 = CARTESIAN_POINT ( 'NONE',  ( -0.1875000000000000300, 0.08000000000000000200, 0.0000000000000000000 ) ) ;
#697 = DIRECTION ( 'NONE',  ( -1.000000000000000000, 0.0000000000000000000, 0.0000000000000000000 ) ) ;
#698 = DIRECTION ( 'NONE',  ( 1.000000000000000000, -3.372529134272243200E-032, 2.753879025871237300E-016 ) ) ;
#699 = DIRECTION ( 'NONE',  ( 0.0000000000000000000, -1.094490382077028200E-016, 1.000000000000000000 ) ) ;
#700 = DIRECTION ( 'NONE',  ( 0.0000000000000000000, 0.0000000000000000000, 1.000000000000000000 ) ) ;
#701 = CARTESIAN_POINT ( 'NONE',  ( -0.1875000000000000300, 0.08000000000000000200, 0.08000000000000000200 ) ) ;
#702 = LENGTH_MEASURE_WITH_UNIT ( LENGTH_MEASURE( 0.02539999999999999900 ), #638 );
#703 = APPLICATION_PROTOCOL_DEFINITION ( 'draft international standard', 'automotive_design', 1998, #307 ) ;
#704 = VERTEX_POINT ( 'NONE', #695 ) ;
#705 = CARTESIAN_POINT ( 'NONE',  ( -0.07799999999999988900, 0.2809999999999999700, 0.0000000000000000000 ) ) ;
#706 = CARTESIAN_POINT ( 'NONE',  ( -0.07800000000000000000, 0.06199999999999995800, 0.3279999999999999000 ) ) ;
#707 = DIRECTION ( 'NONE',  ( 0.0000000000000000000, 0.0000000000000000000, -1.000000000000000000 ) ) ;
#708 = CIRCLE ( 'NONE', #544, 0.07800000000000002800 ) ;
#709 = CARTESIAN_POINT ( 'NONE',  ( 0.1875000000000000300, 0.0000000000000000000, 0.07999999999999998800 ) ) ;
#710 = DIRECTION ( 'NONE',  ( 0.0000000000000000000, -1.119677073506150800E-016, 1.000000000000000000 ) ) ;
#711 = CARTESIAN_POINT ( 'NONE',  ( 0.1875000000000000300, -4.408728476930501100E-018, 0.07999999999999998800 ) ) ;
#712 = ORIENTED_EDGE ( 'NONE', *, *, #417, .F. ) ;
#713 = AXIS2_PLACEMENT_3D ( 'NONE', #520, #400, #348 ) ;
#714 = ADVANCED_FACE ( 'NONE', ( #60 ), #658, .F. ) ;
#715 = CYLINDRICAL_SURFACE ( 'NONE', #332, 0.07800000000000002800 ) ;
#716 = VERTEX_POINT ( 'NONE', #363 ) ;
#717 = ORIENTED_EDGE ( 'NONE', *, *, #335, .T. ) ;
#718 = ADVANCED_FACE ( 'NONE', ( #625 ), #66, .F. ) ;
#719 = CIRCLE ( 'NONE', #721, 0.07800000000000000000 ) ;
#720 = EDGE_CURVE ( 'NONE', #142, #5, #402, .T. ) ;
#721 = AXIS2_PLACEMENT_3D ( 'NONE', #631, #255, #576 ) ;
#722 = ORIENTED_EDGE ( 'NONE', *, *, #443, .T. ) ;
#723 = VECTOR ( 'NONE', #562, 39.37007874015748100 ) ;
#724 = DIRECTION ( 'NONE',  ( 0.0000000000000000000, 1.119677073506151000E-016, -1.000000000000000000 ) ) ;
#725 = VECTOR ( 'NONE', #689, 39.37007874015748100 ) ;
#726 = FACE_OUTER_BOUND ( 'NONE', #523, .T. ) ;
#727 = ADVANCED_FACE ( 'NONE', ( #670 ), #715, .F. ) ;
#728 = ORIENTED_EDGE ( 'NONE', *, *, #114, .F. ) ;
#729 = MANIFOLD_SOLID_BREP ( 'Extrude2', #510 ) ;
#730 = EDGE_CURVE ( 'NONE', #159, #3, #456, .T. ) ;
#731 = DIRECTION ( 'NONE',  ( 0.0000000000000000000, 1.000000000000000000, 1.224646799147353500E-016 ) ) ;
#732 = EDGE_CURVE ( 'NONE', #16, #343, #169, .T. ) ;
ENDSEC;
END-ISO-10303-21;
