ISO-10303-21;
HEADER;
FILE_DESCRIPTION (( 'STEP AP214' ),
    '1' );
FILE_NAME ('397.STEP',
    '2013-03-19T13:28:09',
    ( 'Richard Maletta' ),
    ( '' ),
    'SwSTEP 2.0',
    'SolidWorks 2009',
    '' );
FILE_SCHEMA (( 'AUTOMOTIVE_DESIGN' ));
ENDSEC;

DATA;
#1 = UNCERTAINTY_MEASURE_WITH_UNIT (LENGTH_MEASURE( 1.000000000000000100E-005 ), #4, 'distance_accuracy_value', 'NONE');
#2 =( NAMED_UNIT ( * ) SI_UNIT ( $, .STERADIAN. ) SOLID_ANGLE_UNIT ( ) );
#3 =( NAMED_UNIT ( * ) PLANE_ANGLE_UNIT ( ) SI_UNIT ( $, .RADIAN. ) );
#4 =( CONVERSION_BASED_UNIT ( 'INCH', #5 ) LENGTH_UNIT ( ) NAMED_UNIT ( #6 ) );
#5 = LENGTH_MEASURE_WITH_UNIT ( LENGTH_MEASURE( 0.02539999999999999900 ), #7 );
#6 = DIMENSIONAL_EXPONENTS ( 1.000000000000000000, 0.0000000000000000000, 0.0000000000000000000, 0.0000000000000000000, 0.0000000000000000000, 0.0000000000000000000, 0.0000000000000000000 ) ;
#7 =( LENGTH_UNIT ( ) NAMED_UNIT ( * ) SI_UNIT ( $, .METRE. ) );
#8 = MECHANICAL_DESIGN_GEOMETRIC_PRESENTATION_REPRESENTATION (  '', ( #10 ), #53 ) ;
#9 = PRESENTATION_LAYER_ASSIGNMENT (  '', '', ( #10 ) ) ;
#10 = STYLED_ITEM ( 'NONE', ( #11 ), #64 ) ;
#11 = PRESENTATION_STYLE_ASSIGNMENT (( #12 ) ) ;
#12 = SURFACE_STYLE_USAGE ( .BOTH. , #13 ) ;
#13 = SURFACE_SIDE_STYLE ('',( #14 ) ) ;
#14 = SURFACE_STYLE_FILL_AREA ( #15 ) ;
#15 = FILL_AREA_STYLE ('',( #16 ) ) ;
#16 = FILL_AREA_STYLE_COLOUR ( '', #17 ) ;
#17 = COLOUR_RGB ( '',0.9019607843137255100, 0.9215686274509803400, 0.9215686274509803400 ) ;
#18 = FACE_OUTER_BOUND ( 'NONE', #58, .T. ) ;
#19 = CARTESIAN_POINT ( 'NONE',  ( -0.0009999999999999956800, 0.1869999999999999400, 0.05999166608788256100 ) ) ;
#20 = DIRECTION ( 'NONE',  ( 0.0000000000000000000, 0.0000000000000000000, -1.000000000000000000 ) ) ;
#21 = DIRECTION ( 'NONE',  ( -0.0000000000000000000, -1.000000000000000000, -0.0000000000000000000 ) ) ;
#22 = CARTESIAN_POINT ( 'NONE',  ( 0.0000000000000000000, 0.1869999999999999400, 0.0000000000000000000 ) ) ;
#23 = AXIS2_PLACEMENT_3D ( 'NONE', #22, #21, #20 ) ;
#24 = CIRCLE ( 'NONE', #23, 0.08349999999999997700 ) ;
#25 = CARTESIAN_POINT ( 'NONE',  ( 0.001000000000000013200, 0.1869999999999999400, 0.08349401176132331700 ) ) ;
#26 = DIRECTION ( 'NONE',  ( 0.0000000000000000000, 0.0000000000000000000, -1.000000000000000000 ) ) ;
#27 = DIRECTION ( 'NONE',  ( -0.0000000000000000000, -1.000000000000000000, -0.0000000000000000000 ) ) ;
#28 = CARTESIAN_POINT ( 'NONE',  ( 0.0000000000000000000, -6.858022075225179700E-018, 0.0000000000000000000 ) ) ;
#29 = AXIS2_PLACEMENT_3D ( 'NONE', #28, #27, #26 ) ;
#30 = ORIENTED_EDGE ( 'NONE', *, *, #123, .F. ) ;
#31 = ORIENTED_EDGE ( 'NONE', *, *, #32, .F. ) ;
#32 = EDGE_CURVE ( 'NONE', #124, #116, #54, .T. ) ;
#33 = ORIENTED_EDGE ( 'NONE', *, *, #120, .F. ) ;
#34 = EDGE_LOOP ( 'NONE', ( #130, #119, #31, #33, #121, #125 ) ) ;
#35 = VERTEX_POINT ( 'NONE', #25 ) ;
#36 = ORIENTED_EDGE ( 'NONE', *, *, #93, .F. ) ;
#37 = EDGE_CURVE ( 'NONE', #108, #35, #24, .T. ) ;
#38 = ORIENTED_EDGE ( 'NONE', *, *, #37, .T. ) ;
#39 = UNCERTAINTY_MEASURE_WITH_UNIT (LENGTH_MEASURE( 1.000000000000000100E-005 ), #373, 'distance_accuracy_value', 'NONE');
#40 = DIRECTION ( 'NONE',  ( 0.0000000000000000000, 1.000000000000000000, 0.0000000000000000000 ) ) ;
#41 = VECTOR ( 'NONE', #40, 39.37007874015748100 ) ;
#42 = CARTESIAN_POINT ( 'NONE',  ( -0.0009999999999999926500, 0.0000000000000000000, 0.05999166608788256100 ) ) ;
#43 = LINE ( 'NONE', #42, #41 ) ;
#44 = DIRECTION ( 'NONE',  ( 1.224529520597555500E-016, -0.0000000000000000000, 1.000000000000000000 ) ) ;
#45 = VECTOR ( 'NONE', #44, 39.37007874015748100 ) ;
#46 = CARTESIAN_POINT ( 'NONE',  ( -0.001000000000000003100, 0.1869999999999999400, 7.469630075645087800E-018 ) ) ;
#47 = LINE ( 'NONE', #46, #45 ) ;
#48 = DIRECTION ( 'NONE',  ( 0.0000000000000000000, -0.0000000000000000000, 1.000000000000000000 ) ) ;
#49 = DIRECTION ( 'NONE',  ( 0.0000000000000000000, 1.000000000000000000, 0.0000000000000000000 ) ) ;
#50 = CARTESIAN_POINT ( 'NONE',  ( 0.05999999999999999100, 0.1869999999999999400, 0.0000000000000000000 ) ) ;
#51 = AXIS2_PLACEMENT_3D ( 'NONE', #50, #49, #48 ) ;
#52 = PLANE ( 'NONE',  #51 ) ;
#53 =( GEOMETRIC_REPRESENTATION_CONTEXT ( 3 ) GLOBAL_UNCERTAINTY_ASSIGNED_CONTEXT ( ( #1 ) ) GLOBAL_UNIT_ASSIGNED_CONTEXT ( ( #4, #3, #2 ) ) REPRESENTATION_CONTEXT ( 'NONE', 'WORKASPACE' ) );
#54 = CIRCLE ( 'NONE', #29, 0.05999999999999999800 ) ;
#55 =( GEOMETRIC_REPRESENTATION_CONTEXT ( 3 ) GLOBAL_UNCERTAINTY_ASSIGNED_CONTEXT ( ( #39 ) ) GLOBAL_UNIT_ASSIGNED_CONTEXT ( ( #373, #372, #371 ) ) REPRESENTATION_CONTEXT ( 'NONE', 'WORKASPACE' ) );
#56 = VERTEX_POINT ( 'NONE', #19 ) ;
#57 = ORIENTED_EDGE ( 'NONE', *, *, #75, .F. ) ;
#58 = EDGE_LOOP ( 'NONE', ( #71, #76, #62, #67, #69, #72 ) ) ;
#59 = ORIENTED_EDGE ( 'NONE', *, *, #70, .F. ) ;
#60 = ORIENTED_EDGE ( 'NONE', *, *, #89, .T. ) ;
#61 = ORIENTED_EDGE ( 'NONE', *, *, #120, .T. ) ;
#62 = ORIENTED_EDGE ( 'NONE', *, *, #106, .F. ) ;
#63 = ORIENTED_EDGE ( 'NONE', *, *, #115, .F. ) ;
#64 = ADVANCED_FACE ( 'NONE', ( #18 ), #52, .T. ) ;
#65 = ORIENTED_EDGE ( 'NONE', *, *, #70, .T. ) ;
#66 = ORIENTED_EDGE ( 'NONE', *, *, #68, .T. ) ;
#67 = ORIENTED_EDGE ( 'NONE', *, *, #68, .F. ) ;
#68 = EDGE_CURVE ( 'NONE', #56, #107, #47, .T. ) ;
#69 = ORIENTED_EDGE ( 'NONE', *, *, #75, .T. ) ;
#70 = EDGE_CURVE ( 'NONE', #124, #56, #43, .T. ) ;
#71 = ORIENTED_EDGE ( 'NONE', *, *, #80, .F. ) ;
#72 = ORIENTED_EDGE ( 'NONE', *, *, #111, .T. ) ;
#73 = ADVANCED_FACE ( 'NONE', ( #273 ), #245, .F. ) ;
#74 = EDGE_LOOP ( 'NONE', ( #60, #61, #65, #66 ) ) ;
#75 = EDGE_CURVE ( 'NONE', #56, #112, #142, .T. ) ;
#76 = ORIENTED_EDGE ( 'NONE', *, *, #37, .F. ) ;
#77 = ORIENTED_EDGE ( 'NONE', *, *, #32, .T. ) ;
#78 = ORIENTED_EDGE ( 'NONE', *, *, #118, .T. ) ;
#79 = CLOSED_SHELL ( 'NONE', ( #109, #103, #90, #129, #126, #64, #73, #81 ) ) ;
#80 = EDGE_CURVE ( 'NONE', #35, #113, #189, .T. ) ;
#81 = ADVANCED_FACE ( 'NONE', ( #231 ), #274, .F. ) ;
#82 = EDGE_LOOP ( 'NONE', ( #83, #84, #85, #78 ) ) ;
#83 = ORIENTED_EDGE ( 'NONE', *, *, #123, .T. ) ;
#84 = ORIENTED_EDGE ( 'NONE', *, *, #80, .T. ) ;
#85 = ORIENTED_EDGE ( 'NONE', *, *, #102, .T. ) ;
#86 = EDGE_CURVE ( 'NONE', #87, #94, #169, .T. ) ;
#87 = VERTEX_POINT ( 'NONE', #276 ) ;
#88 = ORIENTED_EDGE ( 'NONE', *, *, #89, .F. ) ;
#89 = EDGE_CURVE ( 'NONE', #107, #87, #197, .T. ) ;
#90 = ADVANCED_FACE ( 'NONE', ( #193 ), #211, .T. ) ;
#91 = EDGE_LOOP ( 'NONE', ( #36, #38, #30, #117 ) ) ;
#92 = ORIENTED_EDGE ( 'NONE', *, *, #93, .T. ) ;
#93 = EDGE_CURVE ( 'NONE', #108, #94, #176, .T. ) ;
#94 = VERTEX_POINT ( 'NONE', #206 ) ;
#95 = ORIENTED_EDGE ( 'NONE', *, *, #86, .F. ) ;
#96 = MANIFOLD_SOLID_BREP ( 'NONE', #79 ) ;
#97 = EDGE_LOOP ( 'NONE', ( #110, #114, #98, #101 ) ) ;
#98 = ORIENTED_EDGE ( 'NONE', *, *, #99, .T. ) ;
#99 = EDGE_CURVE ( 'NONE', #116, #100, #243, .T. ) ;
#100 = VERTEX_POINT ( 'NONE', #188 ) ;
#101 = ORIENTED_EDGE ( 'NONE', *, *, #102, .F. ) ;
#102 = EDGE_CURVE ( 'NONE', #113, #100, #186, .T. ) ;
#103 = ADVANCED_FACE ( 'NONE', ( #182 ), #270, .T. ) ;
#104 = EDGE_LOOP ( 'NONE', ( #105, #92, #95, #88 ) ) ;
#105 = ORIENTED_EDGE ( 'NONE', *, *, #106, .T. ) ;
#106 = EDGE_CURVE ( 'NONE', #107, #108, #167, .T. ) ;
#107 = VERTEX_POINT ( 'NONE', #162 ) ;
#108 = VERTEX_POINT ( 'NONE', #161 ) ;
#109 = ADVANCED_FACE ( 'NONE', ( #160 ), #223, .F. ) ;
#110 = ORIENTED_EDGE ( 'NONE', *, *, #111, .F. ) ;
#111 = EDGE_CURVE ( 'NONE', #112, #113, #265, .T. ) ;
#112 = VERTEX_POINT ( 'NONE', #261 ) ;
#113 = VERTEX_POINT ( 'NONE', #260 ) ;
#114 = ORIENTED_EDGE ( 'NONE', *, *, #115, .T. ) ;
#115 = EDGE_CURVE ( 'NONE', #112, #116, #259, .T. ) ;
#116 = VERTEX_POINT ( 'NONE', #326 ) ;
#117 = ORIENTED_EDGE ( 'NONE', *, *, #128, .F. ) ;
#118 = EDGE_CURVE ( 'NONE', #100, #122, #324, .T. ) ;
#119 = ORIENTED_EDGE ( 'NONE', *, *, #99, .F. ) ;
#120 = EDGE_CURVE ( 'NONE', #87, #124, #286, .T. ) ;
#121 = ORIENTED_EDGE ( 'NONE', *, *, #86, .T. ) ;
#122 = VERTEX_POINT ( 'NONE', #360 ) ;
#123 = EDGE_CURVE ( 'NONE', #122, #35, #327, .T. ) ;
#124 = VERTEX_POINT ( 'NONE', #328 ) ;
#125 = ORIENTED_EDGE ( 'NONE', *, *, #128, .T. ) ;
#126 = ADVANCED_FACE ( 'NONE', ( #334 ), #349, .F. ) ;
#127 = EDGE_LOOP ( 'NONE', ( #63, #57, #59, #77 ) ) ;
#128 = EDGE_CURVE ( 'NONE', #94, #122, #312, .T. ) ;
#129 = ADVANCED_FACE ( 'NONE', ( #307 ), #369, .T. ) ;
#130 = ORIENTED_EDGE ( 'NONE', *, *, #118, .F. ) ;
#131 =( NAMED_UNIT ( * ) PLANE_ANGLE_UNIT ( ) SI_UNIT ( $, .RADIAN. ) );
#132 =( CONVERSION_BASED_UNIT ( 'INCH', #133 ) LENGTH_UNIT ( ) NAMED_UNIT ( #280 ) );
#133 = LENGTH_MEASURE_WITH_UNIT ( LENGTH_MEASURE( 0.02539999999999999900 ), #281 );
#134 = AXIS2_PLACEMENT_3D ( 'NONE', #216, #215, #214 ) ;
#135 = MECHANICAL_DESIGN_GEOMETRIC_PRESENTATION_REPRESENTATION (  '', ( #137 ), #212 ) ;
#136 = PRESENTATION_LAYER_ASSIGNMENT (  '', '', ( #137 ) ) ;
#137 = STYLED_ITEM ( 'NONE', ( #138 ), #90 ) ;
#138 = PRESENTATION_STYLE_ASSIGNMENT (( #139 ) ) ;
#139 = SURFACE_STYLE_USAGE ( .BOTH. , #140 ) ;
#140 = SURFACE_SIDE_STYLE ('',( #141 ) ) ;
#141 = SURFACE_STYLE_FILL_AREA ( #191 ) ;
#142 = CIRCLE ( 'NONE', #168, 0.05999999999999999100 ) ;
#143 = UNCERTAINTY_MEASURE_WITH_UNIT (LENGTH_MEASURE( 1.000000000000000100E-005 ), #146, 'distance_accuracy_value', 'NONE');
#144 =( NAMED_UNIT ( * ) SI_UNIT ( $, .STERADIAN. ) SOLID_ANGLE_UNIT ( ) );
#145 =( NAMED_UNIT ( * ) PLANE_ANGLE_UNIT ( ) SI_UNIT ( $, .RADIAN. ) );
#146 =( CONVERSION_BASED_UNIT ( 'INCH', #147 ) LENGTH_UNIT ( ) NAMED_UNIT ( #148 ) );
#147 = LENGTH_MEASURE_WITH_UNIT ( LENGTH_MEASURE( 0.02539999999999999900 ), #149 );
#148 = DIMENSIONAL_EXPONENTS ( 1.000000000000000000, 0.0000000000000000000, 0.0000000000000000000, 0.0000000000000000000, 0.0000000000000000000, 0.0000000000000000000, 0.0000000000000000000 ) ;
#149 =( LENGTH_UNIT ( ) NAMED_UNIT ( * ) SI_UNIT ( $, .METRE. ) );
#150 = MECHANICAL_DESIGN_GEOMETRIC_PRESENTATION_REPRESENTATION (  '', ( #152 ), #224 ) ;
#151 = PRESENTATION_LAYER_ASSIGNMENT (  '', '', ( #152 ) ) ;
#152 = STYLED_ITEM ( 'NONE', ( #153 ), #109 ) ;
#153 = PRESENTATION_STYLE_ASSIGNMENT (( #154 ) ) ;
#154 = SURFACE_STYLE_USAGE ( .BOTH. , #155 ) ;
#155 = SURFACE_SIDE_STYLE ('',( #156 ) ) ;
#156 = SURFACE_STYLE_FILL_AREA ( #157 ) ;
#157 = FILL_AREA_STYLE ('',( #158 ) ) ;
#158 = FILL_AREA_STYLE_COLOUR ( '', #159 ) ;
#159 = COLOUR_RGB ( '',0.9019607843137255100, 0.9215686274509803400, 0.9215686274509803400 ) ;
#160 = FACE_OUTER_BOUND ( 'NONE', #97, .T. ) ;
#161 = CARTESIAN_POINT ( 'NONE',  ( 0.0000000000000000000, 0.1869999999999999400, -0.08349999999999997700 ) ) ;
#162 = CARTESIAN_POINT ( 'NONE',  ( -0.0009999999999999898300, 0.1869999999999999400, 0.08349401176132331700 ) ) ;
#163 = DIRECTION ( 'NONE',  ( 0.0000000000000000000, 0.0000000000000000000, -1.000000000000000000 ) ) ;
#164 = DIRECTION ( 'NONE',  ( -0.0000000000000000000, -1.000000000000000000, -0.0000000000000000000 ) ) ;
#165 = CARTESIAN_POINT ( 'NONE',  ( 0.0000000000000000000, 0.1869999999999999400, 0.0000000000000000000 ) ) ;
#166 = AXIS2_PLACEMENT_3D ( 'NONE', #165, #164, #163 ) ;
#167 = CIRCLE ( 'NONE', #166, 0.08349999999999997700 ) ;
#168 = AXIS2_PLACEMENT_3D ( 'NONE', #170, #234, #275 ) ;
#169 = CIRCLE ( 'NONE', #279, 0.08350000000000000500 ) ;
#170 = CARTESIAN_POINT ( 'NONE',  ( 0.0000000000000000000, 0.1869999999999999400, 0.0000000000000000000 ) ) ;
#171 = LENGTH_MEASURE_WITH_UNIT ( LENGTH_MEASURE( 0.02539999999999999900 ), #173 );
#172 = DIMENSIONAL_EXPONENTS ( 1.000000000000000000, 0.0000000000000000000, 0.0000000000000000000, 0.0000000000000000000, 0.0000000000000000000, 0.0000000000000000000, 0.0000000000000000000 ) ;
#173 =( LENGTH_UNIT ( ) NAMED_UNIT ( * ) SI_UNIT ( $, .METRE. ) );
#174 = UNCERTAINTY_MEASURE_WITH_UNIT (LENGTH_MEASURE( 1.000000000000000100E-005 ), #132, 'distance_accuracy_value', 'NONE');
#175 =( NAMED_UNIT ( * ) SI_UNIT ( $, .STERADIAN. ) SOLID_ANGLE_UNIT ( ) );
#176 = LINE ( 'NONE', #209, #208 ) ;
#177 = DIRECTION ( 'NONE',  ( 0.0000000000000000000, 0.0000000000000000000, -1.000000000000000000 ) ) ;
#178 = DIRECTION ( 'NONE',  ( -0.0000000000000000000, -1.000000000000000000, -0.0000000000000000000 ) ) ;
#179 = CARTESIAN_POINT ( 'NONE',  ( 0.0000000000000000000, 0.0000000000000000000, 0.0000000000000000000 ) ) ;
#180 = AXIS2_PLACEMENT_3D ( 'NONE', #179, #178, #177 ) ;
#181 = COLOUR_RGB ( '',0.9019607843137255100, 0.9215686274509803400, 0.9215686274509803400 ) ;
#182 = FACE_OUTER_BOUND ( 'NONE', #104, .T. ) ;
#183 = DIRECTION ( 'NONE',  ( -0.0000000000000000000, -1.000000000000000000, -0.0000000000000000000 ) ) ;
#184 = VECTOR ( 'NONE', #183, 39.37007874015748100 ) ;
#185 = CARTESIAN_POINT ( 'NONE',  ( 0.001000000000000007400, 0.0000000000000000000, 0.05999166608788256100 ) ) ;
#186 = LINE ( 'NONE', #185, #184 ) ;
#187 = FILL_AREA_STYLE_COLOUR ( '', #181 ) ;
#188 = CARTESIAN_POINT ( 'NONE',  ( 0.001000000000000007400, -6.857913469049873500E-018, 0.05999166608788256100 ) ) ;
#189 = LINE ( 'NONE', #246, #233 ) ;
#190 = DIRECTION ( 'NONE',  ( 1.224529520597555500E-016, 0.0000000000000000000, 1.000000000000000000 ) ) ;
#191 = FILL_AREA_STYLE ('',( #198 ) ) ;
#192 = COLOUR_RGB ( '',0.9019607843137255100, 0.9215686274509803400, 0.9215686274509803400 ) ;
#193 = FACE_OUTER_BOUND ( 'NONE', #91, .T. ) ;
#194 = DIRECTION ( 'NONE',  ( -0.0000000000000000000, -1.000000000000000000, -0.0000000000000000000 ) ) ;
#195 = VECTOR ( 'NONE', #194, 39.37007874015748100 ) ;
#196 = CARTESIAN_POINT ( 'NONE',  ( -0.0009999999999999898300, 0.0000000000000000000, 0.08349401176132333100 ) ) ;
#197 = LINE ( 'NONE', #196, #195 ) ;
#198 = FILL_AREA_STYLE_COLOUR ( '', #192 ) ;
#199 = PRESENTATION_STYLE_ASSIGNMENT (( #200 ) ) ;
#200 = SURFACE_STYLE_USAGE ( .BOTH. , #201 ) ;
#201 = SURFACE_SIDE_STYLE ('',( #202 ) ) ;
#202 = SURFACE_STYLE_FILL_AREA ( #203 ) ;
#203 = FILL_AREA_STYLE ('',( #204 ) ) ;
#204 = FILL_AREA_STYLE_COLOUR ( '', #205 ) ;
#205 = COLOUR_RGB ( '',0.9019607843137255100, 0.9215686274509803400, 0.9215686274509803400 ) ;
#206 = CARTESIAN_POINT ( 'NONE',  ( 0.0000000000000000000, -3.980102097228898400E-018, -0.08350000000000000500 ) ) ;
#207 = DIRECTION ( 'NONE',  ( -0.0000000000000000000, -1.000000000000000000, -0.0000000000000000000 ) ) ;
#208 = VECTOR ( 'NONE', #207, 39.37007874015748100 ) ;
#209 = CARTESIAN_POINT ( 'NONE',  ( 0.0000000000000000000, 0.0000000000000000000, -0.08349999999999999100 ) ) ;
#210 = UNCERTAINTY_MEASURE_WITH_UNIT (LENGTH_MEASURE( 1.000000000000000100E-005 ), #237, 'distance_accuracy_value', 'NONE');
#211 = CYLINDRICAL_SURFACE ( 'NONE', #180, 0.08349999999999999100 ) ;
#212 =( GEOMETRIC_REPRESENTATION_CONTEXT ( 3 ) GLOBAL_UNCERTAINTY_ASSIGNED_CONTEXT ( ( #210 ) ) GLOBAL_UNIT_ASSIGNED_CONTEXT ( ( #237, #236, #235 ) ) REPRESENTATION_CONTEXT ( 'NONE', 'WORKASPACE' ) );
#213 = DIRECTION ( 'NONE',  ( -1.000000000000000000, 0.0000000000000000000, 1.224529520597555500E-016 ) ) ;
#214 = DIRECTION ( 'NONE',  ( -1.224529520597555500E-016, 0.0000000000000000000, -1.000000000000000000 ) ) ;
#215 = DIRECTION ( 'NONE',  ( 1.000000000000000000, 0.0000000000000000000, -1.224529520597555500E-016 ) ) ;
#216 = CARTESIAN_POINT ( 'NONE',  ( 0.001000000000000000000, -9.813000000000000600, 0.0000000000000000000 ) ) ;
#217 = CARTESIAN_POINT ( 'NONE',  ( 0.0000000000000000000, -3.980102097228898400E-018, 0.0000000000000000000 ) ) ;
#218 = CARTESIAN_POINT ( 'NONE',  ( 0.0000000000000000000, 0.1869999999999999400, 0.0000000000000000000 ) ) ;
#219 = DIRECTION ( 'NONE',  ( 0.0000000000000000000, 0.0000000000000000000, -1.000000000000000000 ) ) ;
#220 = DIRECTION ( 'NONE',  ( -0.0000000000000000000, -1.000000000000000000, -0.0000000000000000000 ) ) ;
#221 = CARTESIAN_POINT ( 'NONE',  ( 0.0000000000000000000, 0.0000000000000000000, 0.0000000000000000000 ) ) ;
#222 = AXIS2_PLACEMENT_3D ( 'NONE', #221, #220, #219 ) ;
#223 = CYLINDRICAL_SURFACE ( 'NONE', #222, 0.05999999999999999100 ) ;
#224 =( GEOMETRIC_REPRESENTATION_CONTEXT ( 3 ) GLOBAL_UNCERTAINTY_ASSIGNED_CONTEXT ( ( #143 ) ) GLOBAL_UNIT_ASSIGNED_CONTEXT ( ( #146, #145, #144 ) ) REPRESENTATION_CONTEXT ( 'NONE', 'WORKASPACE' ) );
#225 =( NAMED_UNIT ( * ) SI_UNIT ( $, .STERADIAN. ) SOLID_ANGLE_UNIT ( ) );
#226 =( NAMED_UNIT ( * ) PLANE_ANGLE_UNIT ( ) SI_UNIT ( $, .RADIAN. ) );
#227 =( CONVERSION_BASED_UNIT ( 'INCH', #228 ) LENGTH_UNIT ( ) NAMED_UNIT ( #229 ) );
#228 = LENGTH_MEASURE_WITH_UNIT ( LENGTH_MEASURE( 0.02539999999999999900 ), #247 );
#229 = DIMENSIONAL_EXPONENTS ( 1.000000000000000000, 0.0000000000000000000, 0.0000000000000000000, 0.0000000000000000000, 0.0000000000000000000, 0.0000000000000000000, 0.0000000000000000000 ) ;
#230 = AXIS2_PLACEMENT_3D ( 'NONE', #238, #213, #190 ) ;
#231 = FACE_OUTER_BOUND ( 'NONE', #82, .T. ) ;
#232 = DIRECTION ( 'NONE',  ( -1.224529520597555500E-016, 0.0000000000000000000, -1.000000000000000000 ) ) ;
#233 = VECTOR ( 'NONE', #232, 39.37007874015748100 ) ;
#234 = DIRECTION ( 'NONE',  ( -0.0000000000000000000, -1.000000000000000000, -0.0000000000000000000 ) ) ;
#235 =( NAMED_UNIT ( * ) SI_UNIT ( $, .STERADIAN. ) SOLID_ANGLE_UNIT ( ) );
#236 =( NAMED_UNIT ( * ) PLANE_ANGLE_UNIT ( ) SI_UNIT ( $, .RADIAN. ) );
#237 =( CONVERSION_BASED_UNIT ( 'INCH', #171 ) LENGTH_UNIT ( ) NAMED_UNIT ( #172 ) );
#238 = CARTESIAN_POINT ( 'NONE',  ( -0.001000000000000000000, -9.813000000000000600, 0.0000000000000000000 ) ) ;
#239 = DIRECTION ( 'NONE',  ( 0.0000000000000000000, 0.0000000000000000000, -1.000000000000000000 ) ) ;
#240 = DIRECTION ( 'NONE',  ( -0.0000000000000000000, -1.000000000000000000, -0.0000000000000000000 ) ) ;
#241 = CARTESIAN_POINT ( 'NONE',  ( 0.0000000000000000000, -6.858022075225179700E-018, 0.0000000000000000000 ) ) ;
#242 = AXIS2_PLACEMENT_3D ( 'NONE', #241, #240, #239 ) ;
#243 = CIRCLE ( 'NONE', #242, 0.05999999999999999800 ) ;
#244 =( GEOMETRIC_REPRESENTATION_CONTEXT ( 3 ) GLOBAL_UNCERTAINTY_ASSIGNED_CONTEXT ( ( #174 ) ) GLOBAL_UNIT_ASSIGNED_CONTEXT ( ( #132, #131, #175 ) ) REPRESENTATION_CONTEXT ( 'NONE', 'WORKASPACE' ) );
#245 = PLANE ( 'NONE',  #230 ) ;
#246 = CARTESIAN_POINT ( 'NONE',  ( 0.001000000000000003100, 0.1869999999999999400, 7.224724171525576900E-018 ) ) ;
#247 =( LENGTH_UNIT ( ) NAMED_UNIT ( * ) SI_UNIT ( $, .METRE. ) );
#248 = MECHANICAL_DESIGN_GEOMETRIC_PRESENTATION_REPRESENTATION (  '', ( #250 ), #271 ) ;
#249 = PRESENTATION_LAYER_ASSIGNMENT (  '', '', ( #250 ) ) ;
#250 = STYLED_ITEM ( 'NONE', ( #251 ), #103 ) ;
#251 = PRESENTATION_STYLE_ASSIGNMENT (( #252 ) ) ;
#252 = SURFACE_STYLE_USAGE ( .BOTH. , #253 ) ;
#253 = SURFACE_SIDE_STYLE ('',( #254 ) ) ;
#254 = SURFACE_STYLE_FILL_AREA ( #255 ) ;
#255 = FILL_AREA_STYLE ('',( #187 ) ) ;
#256 = DIRECTION ( 'NONE',  ( -0.0000000000000000000, -1.000000000000000000, -0.0000000000000000000 ) ) ;
#257 = VECTOR ( 'NONE', #256, 39.37007874015748100 ) ;
#258 = CARTESIAN_POINT ( 'NONE',  ( 0.0000000000000000000, 0.0000000000000000000, -0.05999999999999999100 ) ) ;
#259 = LINE ( 'NONE', #258, #257 ) ;
#260 = CARTESIAN_POINT ( 'NONE',  ( 0.001000000000000007400, 0.1869999999999999400, 0.05999166608788256100 ) ) ;
#261 = CARTESIAN_POINT ( 'NONE',  ( 0.0000000000000000000, 0.1869999999999999400, -0.05999999999999999100 ) ) ;
#262 = DIRECTION ( 'NONE',  ( 0.0000000000000000000, 0.0000000000000000000, -1.000000000000000000 ) ) ;
#263 = DIRECTION ( 'NONE',  ( -0.0000000000000000000, -1.000000000000000000, -0.0000000000000000000 ) ) ;
#264 = AXIS2_PLACEMENT_3D ( 'NONE', #218, #263, #262 ) ;
#265 = CIRCLE ( 'NONE', #264, 0.05999999999999999100 ) ;
#266 = DIRECTION ( 'NONE',  ( 0.0000000000000000000, 0.0000000000000000000, -1.000000000000000000 ) ) ;
#267 = DIRECTION ( 'NONE',  ( -0.0000000000000000000, -1.000000000000000000, -0.0000000000000000000 ) ) ;
#268 = CARTESIAN_POINT ( 'NONE',  ( 0.0000000000000000000, 0.0000000000000000000, 0.0000000000000000000 ) ) ;
#269 = AXIS2_PLACEMENT_3D ( 'NONE', #268, #267, #266 ) ;
#270 = CYLINDRICAL_SURFACE ( 'NONE', #269, 0.08349999999999999100 ) ;
#271 =( GEOMETRIC_REPRESENTATION_CONTEXT ( 3 ) GLOBAL_UNCERTAINTY_ASSIGNED_CONTEXT ( ( #272 ) ) GLOBAL_UNIT_ASSIGNED_CONTEXT ( ( #227, #226, #225 ) ) REPRESENTATION_CONTEXT ( 'NONE', 'WORKASPACE' ) );
#272 = UNCERTAINTY_MEASURE_WITH_UNIT (LENGTH_MEASURE( 1.000000000000000100E-005 ), #227, 'distance_accuracy_value', 'NONE');
#273 = FACE_OUTER_BOUND ( 'NONE', #74, .T. ) ;
#274 = PLANE ( 'NONE',  #134 ) ;
#275 = DIRECTION ( 'NONE',  ( 0.0000000000000000000, 0.0000000000000000000, -1.000000000000000000 ) ) ;
#276 = CARTESIAN_POINT ( 'NONE',  ( -0.0009999999999999926500, -3.980102097228898400E-018, 0.08349401176132334500 ) ) ;
#277 = DIRECTION ( 'NONE',  ( 0.0000000000000000000, 0.0000000000000000000, -1.000000000000000000 ) ) ;
#278 = DIRECTION ( 'NONE',  ( -0.0000000000000000000, -1.000000000000000000, -0.0000000000000000000 ) ) ;
#279 = AXIS2_PLACEMENT_3D ( 'NONE', #217, #278, #277 ) ;
#280 = DIMENSIONAL_EXPONENTS ( 1.000000000000000000, 0.0000000000000000000, 0.0000000000000000000, 0.0000000000000000000, 0.0000000000000000000, 0.0000000000000000000, 0.0000000000000000000 ) ;
#281 =( LENGTH_UNIT ( ) NAMED_UNIT ( * ) SI_UNIT ( $, .METRE. ) );
#282 = MECHANICAL_DESIGN_GEOMETRIC_PRESENTATION_REPRESENTATION (  '', ( #284 ), #244 ) ;
#283 = PRESENTATION_LAYER_ASSIGNMENT (  '', '', ( #284 ) ) ;
#284 = STYLED_ITEM ( 'NONE', ( #199 ), #96 ) ;
#285 = CARTESIAN_POINT ( 'NONE',  ( -0.001000000000000003100, -5.419062086227038300E-018, 1.034727444904934600E-017 ) ) ;
#286 = LINE ( 'NONE', #285, #319 ) ;
#287 = STYLED_ITEM ( 'NONE', ( #288 ), #126 ) ;
#288 = PRESENTATION_STYLE_ASSIGNMENT (( #289 ) ) ;
#289 = SURFACE_STYLE_USAGE ( .BOTH. , #290 ) ;
#290 = SURFACE_SIDE_STYLE ('',( #291 ) ) ;
#291 = SURFACE_STYLE_FILL_AREA ( #292 ) ;
#292 = FILL_AREA_STYLE ('',( #329 ) ) ;
#293 = UNCERTAINTY_MEASURE_WITH_UNIT (LENGTH_MEASURE( 1.000000000000000100E-005 ), #296, 'distance_accuracy_value', 'NONE');
#294 =( NAMED_UNIT ( * ) SI_UNIT ( $, .STERADIAN. ) SOLID_ANGLE_UNIT ( ) );
#295 =( NAMED_UNIT ( * ) PLANE_ANGLE_UNIT ( ) SI_UNIT ( $, .RADIAN. ) );
#296 =( CONVERSION_BASED_UNIT ( 'INCH', #297 ) LENGTH_UNIT ( ) NAMED_UNIT ( #298 ) );
#297 = LENGTH_MEASURE_WITH_UNIT ( LENGTH_MEASURE( 0.02539999999999999900 ), #299 );
#298 = DIMENSIONAL_EXPONENTS ( 1.000000000000000000, 0.0000000000000000000, 0.0000000000000000000, 0.0000000000000000000, 0.0000000000000000000, 0.0000000000000000000, 0.0000000000000000000 ) ;
#299 =( LENGTH_UNIT ( ) NAMED_UNIT ( * ) SI_UNIT ( $, .METRE. ) );
#300 = STYLED_ITEM ( 'NONE', ( #301 ), #129 ) ;
#301 = PRESENTATION_STYLE_ASSIGNMENT (( #302 ) ) ;
#302 = SURFACE_STYLE_USAGE ( .BOTH. , #303 ) ;
#303 = SURFACE_SIDE_STYLE ('',( #304 ) ) ;
#304 = SURFACE_STYLE_FILL_AREA ( #305 ) ;
#305 = FILL_AREA_STYLE ('',( #313 ) ) ;
#306 = COLOUR_RGB ( '',0.9019607843137255100, 0.9215686274509803400, 0.9215686274509803400 ) ;
#307 = FACE_OUTER_BOUND ( 'NONE', #34, .T. ) ;
#308 = DIRECTION ( 'NONE',  ( 0.0000000000000000000, 0.0000000000000000000, -1.000000000000000000 ) ) ;
#309 = DIRECTION ( 'NONE',  ( -0.0000000000000000000, -1.000000000000000000, -0.0000000000000000000 ) ) ;
#310 = CARTESIAN_POINT ( 'NONE',  ( 0.0000000000000000000, -3.980102097228898400E-018, 0.0000000000000000000 ) ) ;
#311 = AXIS2_PLACEMENT_3D ( 'NONE', #310, #309, #308 ) ;
#312 = CIRCLE ( 'NONE', #311, 0.08350000000000000500 ) ;
#313 = FILL_AREA_STYLE_COLOUR ( '', #306 ) ;
#314 = DIRECTION ( 'NONE',  ( 0.0000000000000000000, 0.0000000000000000000, -1.000000000000000000 ) ) ;
#315 =( NAMED_UNIT ( * ) SI_UNIT ( $, .STERADIAN. ) SOLID_ANGLE_UNIT ( ) );
#316 =( GEOMETRIC_REPRESENTATION_CONTEXT ( 3 ) GLOBAL_UNCERTAINTY_ASSIGNED_CONTEXT ( ( #317 ) ) GLOBAL_UNIT_ASSIGNED_CONTEXT ( ( #358, #357, #356 ) ) REPRESENTATION_CONTEXT ( 'NONE', 'WORKASPACE' ) );
#317 = UNCERTAINTY_MEASURE_WITH_UNIT (LENGTH_MEASURE( 1.000000000000000100E-005 ), #358, 'distance_accuracy_value', 'NONE');
#318 = DIRECTION ( 'NONE',  ( -1.224529520597555500E-016, 0.0000000000000000000, -1.000000000000000000 ) ) ;
#319 = VECTOR ( 'NONE', #318, 39.37007874015748100 ) ;
#320 = VECTOR ( 'NONE', #335, 39.37007874015748100 ) ;
#321 = CARTESIAN_POINT ( 'NONE',  ( 0.001000000000000010400, 0.0000000000000000000, 0.08349401176132333100 ) ) ;
#322 =( LENGTH_UNIT ( ) NAMED_UNIT ( * ) SI_UNIT ( $, .METRE. ) );
#323 = DIMENSIONAL_EXPONENTS ( 1.000000000000000000, 0.0000000000000000000, 0.0000000000000000000, 0.0000000000000000000, 0.0000000000000000000, 0.0000000000000000000, 0.0000000000000000000 ) ;
#324 = LINE ( 'NONE', #325, #350 ) ;
#325 = CARTESIAN_POINT ( 'NONE',  ( 0.001000000000000003100, -5.419062086227038300E-018, 1.010236854492983200E-017 ) ) ;
#326 = CARTESIAN_POINT ( 'NONE',  ( 0.0000000000000000000, -6.858022075225179700E-018, -0.06000000000000001200 ) ) ;
#327 = LINE ( 'NONE', #321, #320 ) ;
#328 = CARTESIAN_POINT ( 'NONE',  ( -0.0009999999999999926500, -6.857913469049873500E-018, 0.05999166608788256100 ) ) ;
#329 = FILL_AREA_STYLE_COLOUR ( '', #330 ) ;
#330 = COLOUR_RGB ( '',0.9019607843137255100, 0.9215686274509803400, 0.9215686274509803400 ) ;
#331 = DIRECTION ( 'NONE',  ( -0.0000000000000000000, -1.000000000000000000, -0.0000000000000000000 ) ) ;
#332 = AXIS2_PLACEMENT_3D ( 'NONE', #348, #331, #314 ) ;
#333 =( GEOMETRIC_REPRESENTATION_CONTEXT ( 3 ) GLOBAL_UNCERTAINTY_ASSIGNED_CONTEXT ( ( #377 ) ) GLOBAL_UNIT_ASSIGNED_CONTEXT ( ( #362, #361, #315 ) ) REPRESENTATION_CONTEXT ( 'NONE', 'WORKASPACE' ) );
#334 = FACE_OUTER_BOUND ( 'NONE', #127, .T. ) ;
#335 = DIRECTION ( 'NONE',  ( 0.0000000000000000000, 1.000000000000000000, 0.0000000000000000000 ) ) ;
#336 = MECHANICAL_DESIGN_GEOMETRIC_PRESENTATION_REPRESENTATION (  '', ( #338 ), #55 ) ;
#337 = PRESENTATION_LAYER_ASSIGNMENT (  '', '', ( #338 ) ) ;
#338 = STYLED_ITEM ( 'NONE', ( #339 ), #346 ) ;
#339 = PRESENTATION_STYLE_ASSIGNMENT (( #340 ) ) ;
#340 = SURFACE_STYLE_USAGE ( .BOTH. , #341 ) ;
#341 = SURFACE_SIDE_STYLE ('',( #342 ) ) ;
#342 = SURFACE_STYLE_FILL_AREA ( #343 ) ;
#343 = FILL_AREA_STYLE ('',( #344 ) ) ;
#344 = FILL_AREA_STYLE_COLOUR ( '', #345 ) ;
#345 = COLOUR_RGB ( '',0.9019607843137255100, 0.9215686274509803400, 0.9215686274509803400 ) ;
#346 = ADVANCED_BREP_SHAPE_REPRESENTATION ( '397', ( #96, #387 ), #347 ) ;
#347 =( GEOMETRIC_REPRESENTATION_CONTEXT ( 3 ) GLOBAL_UNCERTAINTY_ASSIGNED_CONTEXT ( ( #293 ) ) GLOBAL_UNIT_ASSIGNED_CONTEXT ( ( #296, #295, #294 ) ) REPRESENTATION_CONTEXT ( 'NONE', 'WORKASPACE' ) );
#348 = CARTESIAN_POINT ( 'NONE',  ( 0.0000000000000000000, 0.0000000000000000000, 0.0000000000000000000 ) ) ;
#349 = CYLINDRICAL_SURFACE ( 'NONE', #332, 0.05999999999999999100 ) ;
#350 = VECTOR ( 'NONE', #351, 39.37007874015748100 ) ;
#351 = DIRECTION ( 'NONE',  ( 1.224529520597555500E-016, 0.0000000000000000000, 1.000000000000000000 ) ) ;
#352 = DIMENSIONAL_EXPONENTS ( 1.000000000000000000, 0.0000000000000000000, 0.0000000000000000000, 0.0000000000000000000, 0.0000000000000000000, 0.0000000000000000000, 0.0000000000000000000 ) ;
#353 =( LENGTH_UNIT ( ) NAMED_UNIT ( * ) SI_UNIT ( $, .METRE. ) );
#354 = MECHANICAL_DESIGN_GEOMETRIC_PRESENTATION_REPRESENTATION (  '', ( #300 ), #316 ) ;
#355 = PRESENTATION_LAYER_ASSIGNMENT (  '', '', ( #300 ) ) ;
#356 =( NAMED_UNIT ( * ) SI_UNIT ( $, .STERADIAN. ) SOLID_ANGLE_UNIT ( ) );
#357 =( NAMED_UNIT ( * ) PLANE_ANGLE_UNIT ( ) SI_UNIT ( $, .RADIAN. ) );
#358 =( CONVERSION_BASED_UNIT ( 'INCH', #359 ) LENGTH_UNIT ( ) NAMED_UNIT ( #352 ) );
#359 = LENGTH_MEASURE_WITH_UNIT ( LENGTH_MEASURE( 0.02539999999999999900 ), #353 );
#360 = CARTESIAN_POINT ( 'NONE',  ( 0.001000000000000013200, -3.980102097228898400E-018, 0.08349401176132334500 ) ) ;
#361 =( NAMED_UNIT ( * ) PLANE_ANGLE_UNIT ( ) SI_UNIT ( $, .RADIAN. ) );
#362 =( CONVERSION_BASED_UNIT ( 'INCH', #370 ) LENGTH_UNIT ( ) NAMED_UNIT ( #323 ) );
#363 = MECHANICAL_DESIGN_GEOMETRIC_PRESENTATION_REPRESENTATION (  '', ( #287 ), #333 ) ;
#364 = PRESENTATION_LAYER_ASSIGNMENT (  '', '', ( #287 ) ) ;
#365 = DIRECTION ( 'NONE',  ( 0.0000000000000000000, 0.0000000000000000000, -1.000000000000000000 ) ) ;
#366 = DIRECTION ( 'NONE',  ( 0.0000000000000000000, -1.000000000000000000, -0.0000000000000000000 ) ) ;
#367 = CARTESIAN_POINT ( 'NONE',  ( 0.08350000000000000500, -5.419062086227038300E-018, 0.0000000000000000000 ) ) ;
#368 = AXIS2_PLACEMENT_3D ( 'NONE', #367, #366, #365 ) ;
#369 = PLANE ( 'NONE',  #368 ) ;
#370 = LENGTH_MEASURE_WITH_UNIT ( LENGTH_MEASURE( 0.02539999999999999900 ), #322 );
#371 =( NAMED_UNIT ( * ) SI_UNIT ( $, .STERADIAN. ) SOLID_ANGLE_UNIT ( ) );
#372 =( NAMED_UNIT ( * ) PLANE_ANGLE_UNIT ( ) SI_UNIT ( $, .RADIAN. ) );
#373 =( CONVERSION_BASED_UNIT ( 'INCH', #374 ) LENGTH_UNIT ( ) NAMED_UNIT ( #375 ) );
#374 = LENGTH_MEASURE_WITH_UNIT ( LENGTH_MEASURE( 0.02539999999999999900 ), #376 );
#375 = DIMENSIONAL_EXPONENTS ( 1.000000000000000000, 0.0000000000000000000, 0.0000000000000000000, 0.0000000000000000000, 0.0000000000000000000, 0.0000000000000000000, 0.0000000000000000000 ) ;
#376 =( LENGTH_UNIT ( ) NAMED_UNIT ( * ) SI_UNIT ( $, .METRE. ) );
#377 = UNCERTAINTY_MEASURE_WITH_UNIT (LENGTH_MEASURE( 1.000000000000000100E-005 ), #362, 'distance_accuracy_value', 'NONE');
#378 = DIRECTION ( 'NONE',  ( 0.0000000000000000000, 0.0000000000000000000, 1.000000000000000000 ) ) ;
#379 = SHAPE_DEFINITION_REPRESENTATION ( #380, #346 ) ;
#380 = PRODUCT_DEFINITION_SHAPE ( 'NONE', 'NONE',  #383 ) ;
#381 = PRODUCT_RELATED_PRODUCT_CATEGORY ( 'part', '', ( #388 ) ) ;
#382 = PRODUCT_DEFINITION_FORMATION_WITH_SPECIFIED_SOURCE ( 'ANY', '', #388, .NOT_KNOWN. ) ;
#383 = PRODUCT_DEFINITION ( 'UNKNOWN', '', #382, #384 ) ;
#384 = PRODUCT_DEFINITION_CONTEXT ( 'detailed design', #386, 'design' ) ;
#385 = APPLICATION_PROTOCOL_DEFINITION ( 'draft international standard', 'automotive_design', 1998, #386 ) ;
#386 = APPLICATION_CONTEXT ( 'automotive_design' ) ;
#387 = AXIS2_PLACEMENT_3D ( 'NONE', #391, #378, #393 ) ;
#388 = PRODUCT ( '397', '397', '', ( #389 ) ) ;
#389 = PRODUCT_CONTEXT ( 'NONE', #392, 'mechanical' ) ;
#390 = APPLICATION_PROTOCOL_DEFINITION ( 'draft international standard', 'automotive_design', 1998, #392 ) ;
#391 = CARTESIAN_POINT ( 'NONE',  ( 0.0000000000000000000, 0.0000000000000000000, 0.0000000000000000000 ) ) ;
#392 = APPLICATION_CONTEXT ( 'automotive_design' ) ;
#393 = DIRECTION ( 'NONE',  ( 1.000000000000000000, 0.0000000000000000000, 0.0000000000000000000 ) ) ;
ENDSEC;
END-ISO-10303-21;
